<?xml version="1.0" encoding="UTF-8"?>
<svg xmlns="http://www.w3.org/2000/svg" xmlns:xlink="http://www.w3.org/1999/xlink" width="32px" height="24px" viewBox="0 0 36 24" version="1.1">
<g id="surface1">
<rect x="0" y="0" width="36" height="24" style="fill:rgb(100%,100%,100%);fill-opacity:1;stroke:none;"/>
<path style=" stroke:none;fill-rule:nonzero;fill:rgb(0%,60%,80%);fill-opacity:1;" d="M 36 20.507812 L 5.160156 0 L 0 0 L 0 3.417969 L 30.953125 24 L 36 24 L 36 20.507812 "/>
<path style=" stroke:none;fill-rule:nonzero;fill:rgb(0%,35.686275%,74.901961%);fill-opacity:1;" d="M 17.796875 18.3125 C 14.1875 18.3125 14.304688 14.917969 14.304688 14.917969 L 14.304688 9.707031 L 21.289062 9.707031 L 21.289062 14.917969 C 21.289062 14.917969 21.410156 18.3125 17.796875 18.3125 "/>
<path style="fill:none;stroke-width:1.006399;stroke-linecap:butt;stroke-linejoin:miter;stroke:rgb(0%,0%,0%);stroke-opacity:1;stroke-miterlimit:4;" d="M 296.654583 401.23297 C 236.498333 401.23297 238.451458 344.661748 238.451458 344.661748 L 238.451458 257.81939 L 354.857708 257.81939 L 354.857708 344.661748 C 354.857708 344.661748 356.875938 401.23297 296.654583 401.23297 Z M 296.654583 401.23297 " transform="matrix(0.06,0,0,0.0600046,-0.0024,-5.763308)"/>
<path style=" stroke:none;fill-rule:nonzero;fill:rgb(84.705882%,6.666667%,14.901961%);fill-opacity:1;" d="M 17.765625 6.429688 C 17.765625 6.429688 17.019531 6.066406 16.316406 6.597656 C 16.316406 6.597656 15.050781 6.417969 14.957031 7.628906 C 14.953125 7.679688 14.945312 7.769531 14.96875 7.796875 C 14.992188 7.824219 15.011719 7.871094 15.011719 7.90625 C 15.011719 7.941406 15.035156 7.957031 15.042969 7.972656 C 15.050781 7.988281 15.070312 8.011719 15.074219 8.074219 C 15.078125 8.140625 15.066406 8.167969 15.125 8.234375 C 15.1875 8.296875 15.191406 8.484375 15.191406 8.535156 C 15.191406 8.589844 15.226562 8.734375 15.253906 8.765625 C 15.28125 8.796875 15.328125 8.871094 15.328125 8.933594 C 15.328125 9 15.351562 9.175781 15.339844 9.222656 C 15.332031 9.265625 15.410156 9.324219 15.480469 9.347656 C 15.550781 9.367188 16.441406 9.660156 17.742188 9.636719 C 19.039062 9.613281 19.503906 9.546875 20.042969 9.351562 C 20.125 9.320312 20.140625 9.253906 20.132812 9.214844 C 20.125 9.175781 20.132812 9.054688 20.15625 9.027344 C 20.175781 8.996094 20.328125 8.753906 20.296875 8.710938 C 20.269531 8.664062 20.269531 8.566406 20.296875 8.527344 C 20.328125 8.492188 20.421875 8.308594 20.441406 8.234375 C 20.460938 8.160156 20.460938 8.070312 20.496094 8.042969 C 20.53125 8.015625 20.542969 7.933594 20.550781 7.914062 C 20.558594 7.898438 20.582031 7.839844 20.617188 7.816406 C 20.617188 7.816406 20.683594 7.507812 20.640625 7.359375 C 20.601562 7.207031 20.375 6.558594 19.457031 6.695312 C 19.457031 6.695312 18.769531 6.175781 17.765625 6.429688 "/>
<path style="fill:none;stroke-width:1.508397;stroke-linecap:butt;stroke-linejoin:miter;stroke:rgb(0%,0%,0%);stroke-opacity:1;stroke-miterlimit:4;" d="M 296.13375 203.201145 C 296.13375 203.201145 283.698854 197.146918 271.980104 206.000411 C 271.980104 206.000411 250.886354 203.005847 249.323854 223.186605 C 249.25875 224.032895 249.128542 225.530177 249.519167 225.985872 C 249.909792 226.441566 250.235313 227.222757 250.235313 227.80865 C 250.235313 228.394543 250.625938 228.65494 250.756146 228.915337 C 250.886354 229.175733 251.211875 229.566329 251.276979 230.607916 C 251.342083 231.714603 251.146771 232.170298 252.123333 233.276984 C 253.165 234.318572 253.230104 237.443334 253.230104 238.289624 C 253.230104 239.201013 253.816042 241.609684 254.271771 242.130478 C 254.7275 242.651272 255.50875 243.888157 255.50875 244.929745 C 255.50875 246.036431 255.899375 248.965896 255.704063 249.747087 C 255.573854 250.463178 256.875938 251.439666 258.047813 251.830262 C 259.219688 252.155758 274.063438 257.038199 295.743125 256.647604 C 317.357708 256.257009 325.105104 255.150322 334.089479 251.895361 C 335.456667 251.374567 335.717083 250.26788 335.586875 249.616888 C 335.456667 248.965896 335.586875 246.94782 335.9775 246.492126 C 336.303021 245.971332 338.842083 241.93518 338.32125 241.219089 C 337.865521 240.437898 337.865521 238.810418 338.32125 238.159426 C 338.842083 237.573533 340.404583 234.513869 340.730104 233.276984 C 341.055625 232.040099 341.055625 230.542817 341.641563 230.087123 C 342.2275 229.631428 342.422813 228.264344 342.553021 227.938848 C 342.683229 227.678451 343.073854 226.701963 343.659792 226.311368 C 343.659792 226.311368 344.766563 221.16853 344.050417 218.694759 C 343.399375 216.15589 339.623333 205.349419 324.323854 207.627892 C 324.323854 207.627892 312.865521 198.969696 296.13375 203.201145 Z M 296.13375 203.201145 " transform="matrix(0.06,0,0,0.0600046,-0.0024,-5.763308)"/>
<path style=" stroke:none;fill-rule:nonzero;fill:rgb(73.72549%,67.45098%,4.313725%);fill-opacity:1;" d="M 20.257812 8.6875 C 17.429688 7.792969 15.25 8.644531 15.25 8.644531 C 15.25 8.644531 15.273438 8.742188 15.296875 8.773438 C 15.320312 8.800781 15.355469 8.871094 15.355469 8.925781 C 15.355469 8.980469 15.363281 9.054688 15.363281 9.09375 C 15.363281 9.132812 15.332031 9.316406 15.492188 9.3125 C 15.492188 9.3125 17.457031 8.542969 20.015625 9.351562 C 20.015625 9.351562 20.085938 9.289062 20.085938 9.199219 C 20.089844 9.109375 20.105469 9.011719 20.140625 8.960938 C 20.175781 8.914062 20.257812 8.753906 20.257812 8.6875 "/>
<path style=" stroke:none;fill-rule:nonzero;fill:rgb(78.431373%,69.411765%,0%);fill-opacity:0.941176;" d="M 17.636719 13.398438 L 16.410156 13.398438 C 16.410156 13.398438 16.289062 14.496094 17.234375 14.828125 L 17.234375 14.929688 L 17.433594 14.929688 L 17.433594 15.058594 C 17.433594 15.058594 17.085938 15.371094 17.390625 15.726562 L 17.390625 15.839844 L 17.441406 15.839844 L 17.441406 16.015625 L 17.496094 16.015625 L 17.496094 16.300781 C 17.496094 16.300781 17.449219 17.324219 16.445312 17.816406 L 16.445312 17.875 L 19.125 17.875 L 19.125 17.816406 C 18.121094 17.324219 18.078125 16.300781 18.078125 16.300781 L 18.078125 16.015625 L 18.132812 16.015625 L 18.132812 15.839844 L 18.183594 15.839844 L 18.183594 15.726562 C 18.484375 15.371094 18.136719 15.058594 18.136719 15.058594 L 18.136719 14.929688 L 18.339844 14.929688 L 18.339844 14.828125 C 19.285156 14.496094 19.164062 13.398438 19.164062 13.398438 L 17.636719 13.398438 "/>
<path style="fill:none;stroke-width:1.006399;stroke-linecap:butt;stroke-linejoin:miter;stroke:rgb(0%,0%,0%);stroke-opacity:1;stroke-miterlimit:4;" d="M 293.985313 319.338152 L 273.542604 319.338152 C 273.542604 319.338152 271.524375 337.631033 287.279583 343.164466 L 287.279583 344.857046 L 290.599896 344.857046 L 290.599896 347.00532 C 290.599896 347.00532 284.805625 352.213258 289.88375 358.137287 L 289.88375 360.025164 L 290.730104 360.025164 L 290.730104 362.954629 L 291.641563 362.954629 L 291.641563 367.706872 C 291.641563 367.706872 290.860313 384.762867 274.128542 392.965369 L 274.128542 393.941857 L 318.79 393.941857 L 318.79 392.965369 C 302.058229 384.762867 301.342083 367.706872 301.342083 367.706872 L 301.342083 362.954629 L 302.253542 362.954629 L 302.253542 360.025164 L 303.099896 360.025164 L 303.099896 358.137287 C 308.112917 352.213258 302.318646 347.00532 302.318646 347.00532 L 302.318646 344.857046 L 305.704063 344.857046 L 305.704063 343.164466 C 321.459271 337.631033 319.441042 319.338152 319.441042 319.338152 Z M 293.985313 319.338152 " transform="matrix(0.06,0,0,0.0600046,-0.0024,-5.763308)"/>
<path style="fill:none;stroke-width:0.2522;stroke-linecap:butt;stroke-linejoin:miter;stroke:rgb(0%,0%,0%);stroke-opacity:1;stroke-miterlimit:4;" d="M 286.563438 342.904069 L 306.355104 342.904069 M 287.279583 344.401351 L 305.638958 344.401351 M 290.599896 346.940221 L 302.188438 346.940221 M 289.88375 358.332584 L 303.034792 358.332584 M 290.730104 359.764767 L 302.253542 359.764767 M 290.730104 362.629133 L 302.253542 362.629133 M 283.698854 385.739355 L 309.219688 385.739355 M 276.472292 391.663384 L 316.44625 391.663384 M 274.974896 392.574773 L 318.00875 392.574773 " transform="matrix(0.06,0,0,0.0600046,-0.0024,-5.763308)"/>
<path style=" stroke:none;fill-rule:nonzero;fill:rgb(80%,80%,80%);fill-opacity:1;" d="M 17.796875 13.335938 C 18.226562 13.335938 18.578125 12.984375 18.578125 12.550781 C 18.578125 12.121094 18.226562 11.769531 17.796875 11.769531 C 17.363281 11.769531 17.011719 12.121094 17.011719 12.550781 C 17.011719 12.984375 17.363281 13.335938 17.796875 13.335938 "/>
<path style="fill:none;stroke-width:1.006399;stroke-linecap:butt;stroke-linejoin:miter;stroke:rgb(0%,0%,0%);stroke-opacity:1;stroke-miterlimit:4;" d="M 296.654583 318.296564 C 303.816042 318.296564 309.675417 312.437635 309.675417 305.211621 C 309.675417 298.050707 303.816042 292.191778 296.654583 292.191778 C 289.428021 292.191778 283.568646 298.050707 283.568646 305.211621 C 283.568646 312.437635 289.428021 318.296564 296.654583 318.296564 Z M 296.654583 318.296564 " transform="matrix(0.06,0,0,0.0600046,-0.0024,-5.763308)"/>
<path style="fill-rule:nonzero;fill:rgb(80%,80%,80%);fill-opacity:1;stroke-width:1.006399;stroke-linecap:butt;stroke-linejoin:miter;stroke:rgb(0%,0%,0%);stroke-opacity:1;stroke-miterlimit:4;" d="M 266.316042 279.953124 L 258.178021 279.953124 L 258.178021 271.815722 L 250.951458 271.815722 L 250.951458 279.953124 L 242.813438 279.953124 L 242.813438 287.179138 L 250.951458 287.179138 L 250.951458 295.31654 L 258.178021 295.31654 L 258.178021 287.179138 L 266.316042 287.179138 L 266.316042 279.953124 " transform="matrix(0.06,0,0,0.0600046,-0.0024,-5.763308)"/>
<path style="fill-rule:nonzero;fill:rgb(80%,80%,80%);fill-opacity:1;stroke-width:1.006399;stroke-linecap:butt;stroke-linejoin:miter;stroke:rgb(0%,0%,0%);stroke-opacity:1;stroke-miterlimit:4;" d="M 350.82125 279.953124 L 342.683229 279.953124 L 342.683229 271.815722 L 335.456667 271.815722 L 335.456667 279.953124 L 327.318646 279.953124 L 327.318646 287.179138 L 335.456667 287.179138 L 335.456667 295.31654 L 342.683229 295.31654 L 342.683229 287.179138 L 350.82125 287.179138 L 350.82125 279.953124 " transform="matrix(0.06,0,0,0.0600046,-0.0024,-5.763308)"/>
<path style="fill-rule:nonzero;fill:rgb(80%,80%,80%);fill-opacity:1;stroke-width:1.006399;stroke-linecap:butt;stroke-linejoin:miter;stroke:rgb(0%,0%,0%);stroke-opacity:1;stroke-miterlimit:4;" d="M 307.982708 269.732547 L 299.844688 269.732547 L 299.844688 261.595145 L 292.618125 261.595145 L 292.618125 269.732547 L 284.480104 269.732547 L 284.480104 276.95856 L 292.618125 276.95856 L 292.618125 285.095963 L 299.844688 285.095963 L 299.844688 276.95856 L 307.982708 276.95856 L 307.982708 269.732547 " transform="matrix(0.06,0,0,0.0600046,-0.0024,-5.763308)"/>
<path style="fill-rule:nonzero;fill:rgb(80%,80%,80%);fill-opacity:1;stroke-width:1.006399;stroke-linecap:butt;stroke-linejoin:miter;stroke:rgb(0%,0%,0%);stroke-opacity:1;stroke-miterlimit:4;" d="M 266.316042 315.171802 L 258.178021 315.171802 L 258.178021 307.0344 L 250.951458 307.0344 L 250.951458 315.171802 L 242.813438 315.171802 L 242.813438 322.332716 L 250.951458 322.332716 L 250.951458 330.470118 L 258.178021 330.470118 L 258.178021 322.332716 L 266.316042 322.332716 L 266.316042 315.171802 " transform="matrix(0.06,0,0,0.0600046,-0.0024,-5.763308)"/>
<path style="fill-rule:nonzero;fill:rgb(80%,80%,80%);fill-opacity:1;stroke-width:1.006399;stroke-linecap:butt;stroke-linejoin:miter;stroke:rgb(0%,0%,0%);stroke-opacity:1;stroke-miterlimit:4;" d="M 350.82125 315.171802 L 342.683229 315.171802 L 342.683229 307.0344 L 335.456667 307.0344 L 335.456667 315.171802 L 327.318646 315.171802 L 327.318646 322.332716 L 335.456667 322.332716 L 335.456667 330.470118 L 342.683229 330.470118 L 342.683229 322.332716 L 350.82125 322.332716 L 350.82125 315.171802 " transform="matrix(0.06,0,0,0.0600046,-0.0024,-5.763308)"/>
<path style="fill-rule:nonzero;fill:rgb(80%,80%,80%);fill-opacity:1;stroke-width:1.006399;stroke-linecap:butt;stroke-linejoin:miter;stroke:rgb(0%,0%,0%);stroke-opacity:1;stroke-miterlimit:4;" d="M 266.316042 350.715976 L 258.178021 350.715976 L 258.178021 342.578573 L 250.951458 342.578573 L 250.951458 350.715976 L 242.813438 350.715976 L 242.813438 357.941989 L 250.951458 357.941989 L 250.951458 366.014292 L 258.178021 366.014292 L 258.178021 357.941989 L 266.316042 357.941989 L 266.316042 350.715976 " transform="matrix(0.06,0,0,0.0600046,-0.0024,-5.763308)"/>
<path style="fill-rule:nonzero;fill:rgb(80%,80%,80%);fill-opacity:1;stroke-width:1.006399;stroke-linecap:butt;stroke-linejoin:miter;stroke:rgb(0%,0%,0%);stroke-opacity:1;stroke-miterlimit:4;" d="M 350.82125 350.715976 L 342.683229 350.715976 L 342.683229 342.578573 L 335.456667 342.578573 L 335.456667 350.715976 L 327.318646 350.715976 L 327.318646 357.941989 L 335.456667 357.941989 L 335.456667 366.014292 L 342.683229 366.014292 L 342.683229 357.941989 L 350.82125 357.941989 L 350.82125 350.715976 " transform="matrix(0.06,0,0,0.0600046,-0.0024,-5.763308)"/>
<path style=" stroke:none;fill-rule:nonzero;fill:rgb(0%,35.686275%,74.901961%);fill-opacity:1;" d="M 17.789062 5.382812 C 18.050781 5.382812 18.257812 5.171875 18.257812 4.914062 C 18.257812 4.65625 18.050781 4.445312 17.789062 4.445312 C 17.53125 4.445312 17.320312 4.65625 17.320312 4.914062 C 17.320312 5.171875 17.53125 5.382812 17.789062 5.382812 "/>
<path style="fill:none;stroke-width:1.006399;stroke-linecap:butt;stroke-linejoin:miter;stroke:rgb(0%,0%,0%);stroke-opacity:1;stroke-miterlimit:4;" d="M 296.524375 185.754554 C 300.886354 185.754554 304.336875 182.239196 304.336875 177.942648 C 304.336875 173.6461 300.886354 170.130742 296.524375 170.130742 C 292.2275 170.130742 288.711875 173.6461 288.711875 177.942648 C 288.711875 182.239196 292.2275 185.754554 296.524375 185.754554 Z M 296.524375 185.754554 " transform="matrix(0.06,0,0,0.0600046,-0.0024,-5.763308)"/>
<path style=" stroke:none;fill-rule:nonzero;fill:rgb(100%,80%,0%);fill-opacity:1;" d="M 18.226562 4.832031 L 17.84375 4.832031 L 17.84375 4.210938 L 17.988281 4.210938 L 17.988281 4.085938 L 17.84375 4.085938 L 17.84375 3.9375 L 17.71875 3.9375 L 17.71875 4.085938 L 17.570312 4.085938 L 17.570312 4.210938 L 17.71875 4.210938 L 17.71875 4.832031 L 17.351562 4.832031 L 17.351562 4.914062 L 17.71875 4.914062 L 17.71875 4.917969 L 17.84375 4.917969 L 17.84375 4.914062 L 18.226562 4.914062 L 18.226562 4.832031 "/>
<path style="fill-rule:nonzero;fill:rgb(73.72549%,67.45098%,4.313725%);fill-opacity:1;stroke-width:0.501998;stroke-linecap:butt;stroke-linejoin:miter;stroke:rgb(0%,0%,0%);stroke-opacity:1;stroke-miterlimit:4;" d="M 303.816042 176.575564 L 297.435833 176.575564 L 297.435833 166.224789 L 299.844688 166.224789 L 299.844688 164.141614 L 297.435833 164.141614 L 297.435833 161.667843 L 295.3525 161.667843 L 295.3525 164.141614 L 292.878542 164.141614 L 292.878542 166.224789 L 295.3525 166.224789 L 295.3525 176.575564 L 289.232708 176.575564 L 289.232708 177.942648 L 295.3525 177.942648 L 295.3525 178.007747 L 297.435833 178.007747 L 297.435833 177.942648 L 303.816042 177.942648 L 303.816042 176.575564 " transform="matrix(0.06,0,0,0.0600046,-0.0024,-5.763308)"/>
<path style=" stroke:none;fill-rule:nonzero;fill:rgb(100%,80%,0%);fill-opacity:1;" d="M 15.910156 5.945312 C 15.910156 5.945312 16.257812 5.90625 16.457031 5.984375 C 16.457031 5.984375 16.226562 6.246094 16.277344 6.59375 C 16.300781 6.769531 16.335938 6.859375 16.386719 6.945312 C 16.4375 7.03125 16.492188 7.207031 16.464844 7.347656 L 16.527344 7.347656 C 16.527344 7.347656 16.59375 7.0625 16.484375 6.902344 C 16.371094 6.738281 16.316406 6.519531 16.429688 6.289062 C 16.539062 6.054688 16.699219 5.964844 16.699219 5.964844 C 16.886719 6.042969 17.277344 5.96875 17.386719 5.890625 C 17.5 5.808594 17.554688 5.699219 17.347656 5.6875 C 17.140625 5.679688 16.789062 5.683594 16.546875 5.863281 C 16.546875 5.863281 16.421875 5.71875 15.792969 5.789062 C 15.164062 5.859375 14.710938 6.128906 14.570312 6.695312 C 14.5 6.980469 14.769531 7.585938 15.015625 7.730469 C 15.015625 7.730469 15.007812 7.632812 15.03125 7.5625 C 15.03125 7.5625 14.613281 7.09375 14.738281 6.65625 C 14.863281 6.21875 15.367188 5.929688 15.910156 5.945312 "/>
<path style="fill-rule:nonzero;fill:rgb(73.72549%,67.45098%,4.313725%);fill-opacity:1;stroke-width:0.653319;stroke-linecap:butt;stroke-linejoin:miter;stroke:rgb(0%,0%,0%);stroke-opacity:1;stroke-miterlimit:4;" d="M 265.209271 195.128842 C 265.209271 195.128842 271.003542 194.47785 274.323854 195.779834 C 274.323854 195.779834 270.482708 200.141482 271.329063 205.935312 C 271.719688 208.864777 272.305625 210.362059 273.151979 211.794242 C 273.998333 213.226425 274.909792 216.15589 274.454063 218.499462 L 275.495729 218.499462 C 275.495729 218.499462 276.6025 213.747219 274.779583 211.078151 C 272.891563 208.343983 271.980104 204.698427 273.868125 200.857573 C 275.691042 196.95162 278.360313 195.454338 278.360313 195.454338 C 281.485313 196.756322 287.995729 195.519437 289.818646 194.217453 C 291.706667 192.850369 292.618125 191.027591 289.167604 190.832293 C 285.717083 190.702095 279.857708 190.767194 275.82125 193.761758 C 275.82125 193.761758 273.737917 191.353087 263.256146 192.524873 C 252.774375 193.696659 245.222292 198.188505 242.878542 207.627892 C 241.706667 212.380135 246.198854 222.470514 250.300417 224.879185 C 250.300417 224.879185 250.170208 223.251705 250.560833 222.079919 C 250.560833 222.079919 243.594688 214.268012 245.678021 206.9769 C 247.761354 199.685787 256.159792 194.868445 265.209271 195.128842 Z M 265.209271 195.128842 " transform="matrix(0.06,0,0,0.0600046,-0.0024,-5.763308)"/>
<path style=" stroke:none;fill-rule:nonzero;fill:rgb(100%,100%,100%);fill-opacity:1;" d="M 17.089844 5.859375 C 17.199219 5.851562 17.289062 5.832031 17.285156 5.816406 C 17.285156 5.800781 17.195312 5.796875 17.085938 5.804688 C 16.976562 5.816406 16.890625 5.832031 16.894531 5.847656 C 16.894531 5.863281 16.984375 5.867188 17.089844 5.859375 "/>
<path style="fill:none;stroke-width:0.653319;stroke-linecap:butt;stroke-linejoin:miter;stroke:rgb(0%,0%,0%);stroke-opacity:1;stroke-miterlimit:4;" d="M 278.295208 195.454338 C 278.295208 195.454338 276.211875 197.342215 278.295208 195.454338 C 280.378542 193.501361 284.740521 192.134278 287.149375 192.720171 C 289.623333 193.306064 286.693646 193.63156 285.912396 193.696659 C 285.066042 193.696659 283.438438 194.022155 281.094688 193.696659 " transform="matrix(0.06,0,0,0.0600046,-0.0024,-5.763308)"/>
<path style=" stroke:none;fill-rule:nonzero;fill:rgb(100%,80%,0%);fill-opacity:1;" d="M 19.660156 5.984375 C 19.660156 5.984375 19.316406 5.941406 19.113281 6.023438 C 19.113281 6.023438 19.34375 6.285156 19.292969 6.632812 C 19.269531 6.808594 19.234375 6.898438 19.183594 6.984375 C 19.132812 7.070312 19.078125 7.246094 19.109375 7.386719 L 19.042969 7.386719 C 19.042969 7.386719 18.976562 7.101562 19.089844 6.9375 C 19.199219 6.777344 19.253906 6.554688 19.144531 6.324219 C 19.03125 6.09375 18.871094 6.003906 18.871094 6.003906 C 18.6875 6.078125 18.292969 6.007812 18.183594 5.929688 C 18.074219 5.847656 18.015625 5.738281 18.222656 5.726562 C 18.429688 5.714844 18.78125 5.722656 19.023438 5.902344 C 19.023438 5.902344 19.148438 5.757812 19.777344 5.828125 C 20.40625 5.898438 20.859375 6.167969 21 6.734375 C 21.070312 7.019531 20.804688 7.621094 20.558594 7.769531 C 20.558594 7.769531 20.566406 7.671875 20.539062 7.601562 C 20.539062 7.601562 20.960938 7.128906 20.832031 6.691406 C 20.707031 6.253906 20.203125 5.96875 19.660156 5.984375 "/>
<path style="fill-rule:nonzero;fill:rgb(73.72549%,67.45098%,4.313725%);fill-opacity:1;stroke-width:0.653319;stroke-linecap:butt;stroke-linejoin:miter;stroke:rgb(0%,0%,0%);stroke-opacity:1;stroke-miterlimit:4;" d="M 327.709271 195.779834 C 327.709271 195.779834 321.980104 195.063743 318.594688 196.430826 C 318.594688 196.430826 322.435833 200.792474 321.589479 206.586304 C 321.198854 209.515769 320.612917 211.013051 319.766563 212.445234 C 318.920208 213.877417 318.00875 216.806882 318.529583 219.150454 L 317.422813 219.150454 C 317.422813 219.150454 316.316042 214.398211 318.204063 211.664044 C 320.026979 208.994976 320.938438 205.28432 319.115521 201.443466 C 317.2275 197.602612 314.558229 196.10533 314.558229 196.10533 C 311.498333 197.342215 304.922813 196.170429 303.099896 194.868445 C 301.276979 193.501361 300.300417 191.678583 303.750938 191.483286 C 307.201458 191.287988 313.060833 191.418186 317.097292 194.41275 C 317.097292 194.41275 319.180625 192.004079 329.662396 193.175865 C 340.144167 194.347651 347.69625 198.839497 350.04 208.278884 C 351.211875 213.031127 346.784792 223.056407 342.683229 225.530177 C 342.683229 225.530177 342.813438 223.902697 342.357708 222.730911 C 342.357708 222.730911 349.388958 214.853905 347.240521 207.562793 C 345.157188 200.27168 336.75875 195.519437 327.709271 195.779834 Z M 327.709271 195.779834 " transform="matrix(0.06,0,0,0.0600046,-0.0024,-5.763308)"/>
<path style=" stroke:none;fill-rule:nonzero;fill:rgb(100%,100%,100%);fill-opacity:1;" d="M 18.480469 5.898438 C 18.371094 5.886719 18.285156 5.867188 18.285156 5.855469 C 18.285156 5.839844 18.375 5.835938 18.484375 5.84375 C 18.59375 5.851562 18.679688 5.871094 18.679688 5.886719 C 18.679688 5.902344 18.589844 5.90625 18.480469 5.898438 "/>
<path style="fill:none;stroke-width:0.653319;stroke-linecap:butt;stroke-linejoin:miter;stroke:rgb(0%,0%,0%);stroke-opacity:1;stroke-miterlimit:4;" d="M 314.623333 196.040231 C 314.623333 196.040231 316.706667 197.993208 314.623333 196.040231 C 312.54 194.087254 308.243125 192.78527 305.769167 193.371163 C 303.295208 193.891957 306.224896 194.217453 307.006146 194.282552 C 307.8525 194.347651 309.480104 194.673147 311.888958 194.282552 " transform="matrix(0.06,0,0,0.0600046,-0.0024,-5.763308)"/>
<path style=" stroke:none;fill-rule:nonzero;fill:rgb(100%,80%,0%);fill-opacity:1;" d="M 17.464844 5.597656 L 17.464844 6.9375 C 17.449219 7.066406 17.625 7.253906 17.75 7.308594 C 17.75 7.308594 18.046875 7.207031 18.066406 6.9375 L 18.066406 5.523438 L 17.96875 5.523438 L 17.96875 6.746094 C 17.960938 6.871094 17.882812 7.097656 17.769531 7.132812 C 17.769531 7.132812 17.554688 7.097656 17.542969 6.75 L 17.542969 5.558594 L 17.464844 5.597656 "/>
<path style="fill-rule:nonzero;fill:rgb(73.72549%,67.45098%,4.313725%);fill-opacity:1;stroke-width:0.653319;stroke-linecap:butt;stroke-linejoin:miter;stroke:rgb(0%,0%,0%);stroke-opacity:1;stroke-miterlimit:4;" d="M 291.120729 189.335011 L 291.120729 211.664044 C 290.860313 213.812318 293.79 216.93708 295.873333 217.848469 C 295.873333 217.848469 300.82125 216.15589 301.146771 211.664044 L 301.146771 188.098126 L 299.519167 188.098126 L 299.519167 208.474182 C 299.388958 210.557357 298.086875 214.333112 296.198854 214.919004 C 296.198854 214.919004 292.618125 214.333112 292.422813 208.539281 L 292.422813 188.684019 L 291.120729 189.335011 " transform="matrix(0.06,0,0,0.0600046,-0.0024,-5.763308)"/>
<path style=" stroke:none;fill-rule:nonzero;fill:rgb(100%,100%,100%);fill-opacity:1;" d="M 14.503906 7.429688 C 14.59375 7.429688 14.664062 7.355469 14.664062 7.269531 C 14.664062 7.179688 14.59375 7.109375 14.503906 7.109375 C 14.414062 7.109375 14.34375 7.179688 14.34375 7.269531 C 14.34375 7.355469 14.414062 7.429688 14.503906 7.429688 "/>
<path style="fill:none;stroke-width:1.006399;stroke-linecap:butt;stroke-linejoin:miter;stroke:rgb(0%,0%,0%);stroke-opacity:1;stroke-miterlimit:4;" d="M 241.771771 219.866545 C 243.269167 219.866545 244.441042 218.62966 244.441042 217.197477 C 244.441042 215.700195 243.269167 214.528409 241.771771 214.528409 C 240.274375 214.528409 239.1025 215.700195 239.1025 217.197477 C 239.1025 218.62966 240.274375 219.866545 241.771771 219.866545 Z M 241.771771 219.866545 " transform="matrix(0.06,0,0,0.0600046,-0.0024,-5.763308)"/>
<path style=" stroke:none;fill-rule:nonzero;fill:rgb(100%,100%,100%);fill-opacity:1;" d="M 14.402344 7.058594 C 14.492188 7.058594 14.5625 6.988281 14.5625 6.902344 C 14.5625 6.8125 14.492188 6.742188 14.402344 6.742188 C 14.316406 6.742188 14.246094 6.8125 14.246094 6.902344 C 14.246094 6.988281 14.316406 7.058594 14.402344 7.058594 "/>
<path style="fill:none;stroke-width:1.006399;stroke-linecap:butt;stroke-linejoin:miter;stroke:rgb(0%,0%,0%);stroke-opacity:1;stroke-miterlimit:4;" d="M 240.079063 213.682119 C 241.576458 213.682119 242.748333 212.510333 242.748333 211.078151 C 242.748333 209.580869 241.576458 208.409083 240.079063 208.409083 C 238.646771 208.409083 237.474896 209.580869 237.474896 211.078151 C 237.474896 212.510333 238.646771 213.682119 240.079063 213.682119 Z M 240.079063 213.682119 " transform="matrix(0.06,0,0,0.0600046,-0.0024,-5.763308)"/>
<path style=" stroke:none;fill-rule:nonzero;fill:rgb(100%,100%,100%);fill-opacity:1;" d="M 14.457031 6.617188 C 14.546875 6.617188 14.617188 6.542969 14.617188 6.457031 C 14.617188 6.367188 14.546875 6.296875 14.457031 6.296875 C 14.367188 6.296875 14.296875 6.367188 14.296875 6.457031 C 14.296875 6.542969 14.367188 6.617188 14.457031 6.617188 "/>
<path style="fill:none;stroke-width:1.006399;stroke-linecap:butt;stroke-linejoin:miter;stroke:rgb(0%,0%,0%);stroke-opacity:1;stroke-miterlimit:4;" d="M 240.990521 206.325908 C 242.487917 206.325908 243.659792 205.089022 243.659792 203.65684 C 243.659792 202.159558 242.487917 200.987772 240.990521 200.987772 C 239.493125 200.987772 238.32125 202.159558 238.32125 203.65684 C 238.32125 205.089022 239.493125 206.325908 240.990521 206.325908 Z M 240.990521 206.325908 " transform="matrix(0.06,0,0,0.0600046,-0.0024,-5.763308)"/>
<path style=" stroke:none;fill-rule:nonzero;fill:rgb(100%,100%,100%);fill-opacity:1;" d="M 14.707031 6.246094 C 14.792969 6.246094 14.867188 6.175781 14.867188 6.085938 C 14.867188 5.996094 14.792969 5.925781 14.707031 5.925781 C 14.617188 5.925781 14.546875 5.996094 14.546875 6.085938 C 14.546875 6.175781 14.617188 6.246094 14.707031 6.246094 "/>
<path style="fill:none;stroke-width:1.006399;stroke-linecap:butt;stroke-linejoin:miter;stroke:rgb(0%,0%,0%);stroke-opacity:1;stroke-miterlimit:4;" d="M 245.157188 200.141482 C 246.589479 200.141482 247.826458 198.969696 247.826458 197.472414 C 247.826458 195.975132 246.589479 194.803346 245.157188 194.803346 C 243.659792 194.803346 242.487917 195.975132 242.487917 197.472414 C 242.487917 198.969696 243.659792 200.141482 245.157188 200.141482 Z M 245.157188 200.141482 " transform="matrix(0.06,0,0,0.0600046,-0.0024,-5.763308)"/>
<path style=" stroke:none;fill-rule:nonzero;fill:rgb(100%,100%,100%);fill-opacity:1;" d="M 15 5.976562 C 15.089844 5.976562 15.160156 5.90625 15.160156 5.816406 C 15.160156 5.726562 15.089844 5.65625 15 5.65625 C 14.910156 5.65625 14.839844 5.726562 14.839844 5.816406 C 14.839844 5.90625 14.910156 5.976562 15 5.976562 "/>
<path style="fill:none;stroke-width:1.006399;stroke-linecap:butt;stroke-linejoin:miter;stroke:rgb(0%,0%,0%);stroke-opacity:1;stroke-miterlimit:4;" d="M 250.04 195.649636 C 251.537396 195.649636 252.709271 194.47785 252.709271 192.980568 C 252.709271 191.483286 251.537396 190.3115 250.04 190.3115 C 248.542604 190.3115 247.370729 191.483286 247.370729 192.980568 C 247.370729 194.47785 248.542604 195.649636 250.04 195.649636 Z M 250.04 195.649636 " transform="matrix(0.06,0,0,0.0600046,-0.0024,-5.763308)"/>
<path style=" stroke:none;fill-rule:nonzero;fill:rgb(100%,100%,100%);fill-opacity:1;" d="M 15.378906 5.824219 C 15.46875 5.824219 15.539062 5.753906 15.539062 5.664062 C 15.539062 5.578125 15.46875 5.503906 15.378906 5.503906 C 15.289062 5.503906 15.21875 5.578125 15.21875 5.664062 C 15.21875 5.753906 15.289062 5.824219 15.378906 5.824219 "/>
<path style="fill:none;stroke-width:1.006399;stroke-linecap:butt;stroke-linejoin:miter;stroke:rgb(0%,0%,0%);stroke-opacity:1;stroke-miterlimit:4;" d="M 256.355104 193.110766 C 257.8525 193.110766 259.024375 191.93898 259.024375 190.441698 C 259.024375 189.009515 257.8525 187.77263 256.355104 187.77263 C 254.857708 187.77263 253.685833 189.009515 253.685833 190.441698 C 253.685833 191.93898 254.857708 193.110766 256.355104 193.110766 Z M 256.355104 193.110766 " transform="matrix(0.06,0,0,0.0600046,-0.0024,-5.763308)"/>
<path style=" stroke:none;fill-rule:nonzero;fill:rgb(100%,100%,100%);fill-opacity:1;" d="M 15.773438 5.753906 C 15.863281 5.753906 15.933594 5.683594 15.933594 5.59375 C 15.933594 5.503906 15.863281 5.433594 15.773438 5.433594 C 15.6875 5.433594 15.617188 5.503906 15.617188 5.59375 C 15.617188 5.683594 15.6875 5.753906 15.773438 5.753906 "/>
<path style="fill:none;stroke-width:1.006399;stroke-linecap:butt;stroke-linejoin:miter;stroke:rgb(0%,0%,0%);stroke-opacity:1;stroke-miterlimit:4;" d="M 262.930625 191.93898 C 264.428021 191.93898 265.599896 190.767194 265.599896 189.269912 C 265.599896 187.77263 264.428021 186.600844 262.930625 186.600844 C 261.498333 186.600844 260.326458 187.77263 260.326458 189.269912 C 260.326458 190.767194 261.498333 191.93898 262.930625 191.93898 Z M 262.930625 191.93898 " transform="matrix(0.06,0,0,0.0600046,-0.0024,-5.763308)"/>
<path style=" stroke:none;fill-rule:nonzero;fill:rgb(100%,100%,100%);fill-opacity:1;" d="M 16.152344 5.730469 C 16.242188 5.730469 16.3125 5.660156 16.3125 5.570312 C 16.3125 5.484375 16.242188 5.410156 16.152344 5.410156 C 16.0625 5.410156 15.992188 5.484375 15.992188 5.570312 C 15.992188 5.660156 16.0625 5.730469 16.152344 5.730469 "/>
<path style="fill:none;stroke-width:1.006399;stroke-linecap:butt;stroke-linejoin:miter;stroke:rgb(0%,0%,0%);stroke-opacity:1;stroke-miterlimit:4;" d="M 269.245729 191.548385 C 270.743125 191.548385 271.915 190.376599 271.915 188.879317 C 271.915 187.447134 270.743125 186.210249 269.245729 186.210249 C 267.748333 186.210249 266.576458 187.447134 266.576458 188.879317 C 266.576458 190.376599 267.748333 191.548385 269.245729 191.548385 Z M 269.245729 191.548385 " transform="matrix(0.06,0,0,0.0600046,-0.0024,-5.763308)"/>
<path style=" stroke:none;fill-rule:nonzero;fill:rgb(100%,100%,100%);fill-opacity:1;" d="M 16.492188 5.761719 C 16.582031 5.761719 16.652344 5.6875 16.652344 5.601562 C 16.652344 5.511719 16.582031 5.441406 16.492188 5.441406 C 16.402344 5.441406 16.332031 5.511719 16.332031 5.601562 C 16.332031 5.6875 16.402344 5.761719 16.492188 5.761719 "/>
<path style="fill:none;stroke-width:1.006399;stroke-linecap:butt;stroke-linejoin:miter;stroke:rgb(0%,0%,0%);stroke-opacity:1;stroke-miterlimit:4;" d="M 274.909792 192.069179 C 276.407188 192.069179 277.579063 190.832293 277.579063 189.400111 C 277.579063 187.902829 276.407188 186.731043 274.909792 186.731043 C 273.412396 186.731043 272.240521 187.902829 272.240521 189.400111 C 272.240521 190.832293 273.412396 192.069179 274.909792 192.069179 Z M 274.909792 192.069179 " transform="matrix(0.06,0,0,0.0600046,-0.0024,-5.763308)"/>
<path style=" stroke:none;fill-rule:nonzero;fill:rgb(100%,100%,100%);fill-opacity:1;" d="M 17.460938 5.640625 C 17.546875 5.640625 17.621094 5.570312 17.621094 5.480469 C 17.621094 5.390625 17.546875 5.320312 17.460938 5.320312 C 17.371094 5.320312 17.300781 5.390625 17.300781 5.480469 C 17.300781 5.570312 17.371094 5.640625 17.460938 5.640625 "/>
<path style="fill:none;stroke-width:1.006399;stroke-linecap:butt;stroke-linejoin:miter;stroke:rgb(0%,0%,0%);stroke-opacity:1;stroke-miterlimit:4;" d="M 291.055625 190.051103 C 292.487917 190.051103 293.724896 188.879317 293.724896 187.382035 C 293.724896 185.884753 292.487917 184.712967 291.055625 184.712967 C 289.558229 184.712967 288.386354 185.884753 288.386354 187.382035 C 288.386354 188.879317 289.558229 190.051103 291.055625 190.051103 Z M 291.055625 190.051103 " transform="matrix(0.06,0,0,0.0600046,-0.0024,-5.763308)"/>
<path style=" stroke:none;fill-rule:nonzero;fill:rgb(100%,100%,100%);fill-opacity:1;" d="M 17.769531 5.722656 C 17.859375 5.722656 17.929688 5.652344 17.929688 5.5625 C 17.929688 5.476562 17.859375 5.402344 17.769531 5.402344 C 17.679688 5.402344 17.609375 5.476562 17.609375 5.5625 C 17.609375 5.652344 17.679688 5.722656 17.769531 5.722656 "/>
<path style="fill:none;stroke-width:1.006399;stroke-linecap:butt;stroke-linejoin:miter;stroke:rgb(0%,0%,0%);stroke-opacity:1;stroke-miterlimit:4;" d="M 296.198854 191.418186 C 297.69625 191.418186 298.868125 190.2464 298.868125 188.749118 C 298.868125 187.316936 297.69625 186.08005 296.198854 186.08005 C 294.701458 186.08005 293.529583 187.316936 293.529583 188.749118 C 293.529583 190.2464 294.701458 191.418186 296.198854 191.418186 Z M 296.198854 191.418186 " transform="matrix(0.06,0,0,0.0600046,-0.0024,-5.763308)"/>
<path style=" stroke:none;fill-rule:nonzero;fill:rgb(100%,100%,100%);fill-opacity:1;" d="M 17.769531 6.90625 C 17.859375 6.90625 17.929688 6.835938 17.929688 6.746094 C 17.929688 6.660156 17.859375 6.585938 17.769531 6.585938 C 17.679688 6.585938 17.609375 6.660156 17.609375 6.746094 C 17.609375 6.835938 17.679688 6.90625 17.769531 6.90625 "/>
<path style="fill:none;stroke-width:1.006399;stroke-linecap:butt;stroke-linejoin:miter;stroke:rgb(0%,0%,0%);stroke-opacity:1;stroke-miterlimit:4;" d="M 296.198854 211.14325 C 297.69625 211.14325 298.868125 209.971464 298.868125 208.474182 C 298.868125 207.041999 297.69625 205.805114 296.198854 205.805114 C 294.701458 205.805114 293.529583 207.041999 293.529583 208.474182 C 293.529583 209.971464 294.701458 211.14325 296.198854 211.14325 Z M 296.198854 211.14325 " transform="matrix(0.06,0,0,0.0600046,-0.0024,-5.763308)"/>
<path style=" stroke:none;fill-rule:nonzero;fill:rgb(100%,100%,100%);fill-opacity:1;" d="M 21.078125 7.53125 C 21.164062 7.53125 21.238281 7.457031 21.238281 7.371094 C 21.238281 7.28125 21.164062 7.210938 21.078125 7.210938 C 20.988281 7.210938 20.917969 7.28125 20.917969 7.371094 C 20.917969 7.457031 20.988281 7.53125 21.078125 7.53125 "/>
<path style="fill:none;stroke-width:1.006399;stroke-linecap:butt;stroke-linejoin:miter;stroke:rgb(0%,0%,0%);stroke-opacity:1;stroke-miterlimit:4;" d="M 351.342083 221.559125 C 352.774375 221.559125 354.011354 220.32224 354.011354 218.890057 C 354.011354 217.392775 352.774375 216.220989 351.342083 216.220989 C 349.844688 216.220989 348.672813 217.392775 348.672813 218.890057 C 348.672813 220.32224 349.844688 221.559125 351.342083 221.559125 Z M 351.342083 221.559125 " transform="matrix(0.06,0,0,0.0600046,-0.0024,-5.763308)"/>
<path style=" stroke:none;fill-rule:nonzero;fill:rgb(100%,100%,100%);fill-opacity:1;" d="M 21.160156 7.132812 C 21.25 7.132812 21.320312 7.058594 21.320312 6.972656 C 21.320312 6.882812 21.25 6.8125 21.160156 6.8125 C 21.070312 6.8125 21 6.882812 21 6.972656 C 21 7.058594 21.070312 7.132812 21.160156 7.132812 "/>
<path style="fill:none;stroke-width:1.006399;stroke-linecap:butt;stroke-linejoin:miter;stroke:rgb(0%,0%,0%);stroke-opacity:1;stroke-miterlimit:4;" d="M 352.709271 214.919004 C 354.206667 214.919004 355.378542 213.682119 355.378542 212.249937 C 355.378542 210.752654 354.206667 209.580869 352.709271 209.580869 C 351.211875 209.580869 350.04 210.752654 350.04 212.249937 C 350.04 213.682119 351.211875 214.919004 352.709271 214.919004 Z M 352.709271 214.919004 " transform="matrix(0.06,0,0,0.0600046,-0.0024,-5.763308)"/>
<path style=" stroke:none;fill-rule:nonzero;fill:rgb(100%,100%,100%);fill-opacity:1;" d="M 21.09375 6.71875 C 21.179688 6.71875 21.253906 6.644531 21.253906 6.558594 C 21.253906 6.46875 21.179688 6.398438 21.09375 6.398438 C 21.003906 6.398438 20.933594 6.46875 20.933594 6.558594 C 20.933594 6.644531 21.003906 6.71875 21.09375 6.71875 "/>
<path style="fill:none;stroke-width:1.006399;stroke-linecap:butt;stroke-linejoin:miter;stroke:rgb(0%,0%,0%);stroke-opacity:1;stroke-miterlimit:4;" d="M 351.6025 208.018487 C 353.034792 208.018487 354.271771 206.781602 354.271771 205.349419 C 354.271771 203.852137 353.034792 202.680351 351.6025 202.680351 C 350.105104 202.680351 348.933229 203.852137 348.933229 205.349419 C 348.933229 206.781602 350.105104 208.018487 351.6025 208.018487 Z M 351.6025 208.018487 " transform="matrix(0.06,0,0,0.0600046,-0.0024,-5.763308)"/>
<path style=" stroke:none;fill-rule:nonzero;fill:rgb(100%,100%,100%);fill-opacity:1;" d="M 20.917969 6.324219 C 21.007812 6.324219 21.078125 6.253906 21.078125 6.164062 C 21.078125 6.078125 21.007812 6.003906 20.917969 6.003906 C 20.832031 6.003906 20.757812 6.078125 20.757812 6.164062 C 20.757812 6.253906 20.832031 6.324219 20.917969 6.324219 "/>
<path style="fill:none;stroke-width:1.006399;stroke-linecap:butt;stroke-linejoin:miter;stroke:rgb(0%,0%,0%);stroke-opacity:1;stroke-miterlimit:4;" d="M 348.672813 201.443466 C 350.170208 201.443466 351.342083 200.27168 351.342083 198.774398 C 351.342083 197.342215 350.170208 196.10533 348.672813 196.10533 C 347.240521 196.10533 346.003542 197.342215 346.003542 198.774398 C 346.003542 200.27168 347.240521 201.443466 348.672813 201.443466 Z M 348.672813 201.443466 " transform="matrix(0.06,0,0,0.0600046,-0.0024,-5.763308)"/>
<path style=" stroke:none;fill-rule:nonzero;fill:rgb(100%,100%,100%);fill-opacity:1;" d="M 20.625 6.054688 C 20.714844 6.054688 20.785156 5.980469 20.785156 5.894531 C 20.785156 5.804688 20.714844 5.734375 20.625 5.734375 C 20.535156 5.734375 20.464844 5.804688 20.464844 5.894531 C 20.464844 5.980469 20.535156 6.054688 20.625 6.054688 "/>
<path style="fill:none;stroke-width:1.006399;stroke-linecap:butt;stroke-linejoin:miter;stroke:rgb(0%,0%,0%);stroke-opacity:1;stroke-miterlimit:4;" d="M 343.79 196.95162 C 345.287396 196.95162 346.459271 195.714735 346.459271 194.282552 C 346.459271 192.78527 345.287396 191.613484 343.79 191.613484 C 342.292604 191.613484 341.120729 192.78527 341.120729 194.282552 C 341.120729 195.714735 342.292604 196.95162 343.79 196.95162 Z M 343.79 196.95162 " transform="matrix(0.06,0,0,0.0600046,-0.0024,-5.763308)"/>
<path style=" stroke:none;fill-rule:nonzero;fill:rgb(100%,100%,100%);fill-opacity:1;" d="M 20.269531 5.878906 C 20.359375 5.878906 20.429688 5.808594 20.429688 5.71875 C 20.429688 5.632812 20.359375 5.558594 20.269531 5.558594 C 20.179688 5.558594 20.109375 5.632812 20.109375 5.71875 C 20.109375 5.808594 20.179688 5.878906 20.269531 5.878906 "/>
<path style="fill:none;stroke-width:1.006399;stroke-linecap:butt;stroke-linejoin:miter;stroke:rgb(0%,0%,0%);stroke-opacity:1;stroke-miterlimit:4;" d="M 337.865521 194.022155 C 339.362917 194.022155 340.534792 192.850369 340.534792 191.353087 C 340.534792 189.920904 339.362917 188.684019 337.865521 188.684019 C 336.368125 188.684019 335.19625 189.920904 335.19625 191.353087 C 335.19625 192.850369 336.368125 194.022155 337.865521 194.022155 Z M 337.865521 194.022155 " transform="matrix(0.06,0,0,0.0600046,-0.0024,-5.763308)"/>
<path style=" stroke:none;fill-rule:nonzero;fill:rgb(100%,100%,100%);fill-opacity:1;" d="M 19.867188 5.789062 C 19.953125 5.789062 20.027344 5.714844 20.027344 5.628906 C 20.027344 5.539062 19.953125 5.46875 19.867188 5.46875 C 19.777344 5.46875 19.707031 5.539062 19.707031 5.628906 C 19.707031 5.714844 19.777344 5.789062 19.867188 5.789062 "/>
<path style="fill:none;stroke-width:1.006399;stroke-linecap:butt;stroke-linejoin:miter;stroke:rgb(0%,0%,0%);stroke-opacity:1;stroke-miterlimit:4;" d="M 331.159792 192.524873 C 332.592083 192.524873 333.829063 191.287988 333.829063 189.855805 C 333.829063 188.358523 332.592083 187.186737 331.159792 187.186737 C 329.662396 187.186737 328.490521 188.358523 328.490521 189.855805 C 328.490521 191.287988 329.662396 192.524873 331.159792 192.524873 Z M 331.159792 192.524873 " transform="matrix(0.06,0,0,0.0600046,-0.0024,-5.763308)"/>
<path style=" stroke:none;fill-rule:nonzero;fill:rgb(100%,100%,100%);fill-opacity:1;" d="M 19.496094 5.757812 C 19.585938 5.757812 19.65625 5.6875 19.65625 5.597656 C 19.65625 5.507812 19.585938 5.4375 19.496094 5.4375 C 19.410156 5.4375 19.335938 5.507812 19.335938 5.597656 C 19.335938 5.6875 19.410156 5.757812 19.496094 5.757812 "/>
<path style="fill:none;stroke-width:1.006399;stroke-linecap:butt;stroke-linejoin:miter;stroke:rgb(0%,0%,0%);stroke-opacity:1;stroke-miterlimit:4;" d="M 324.974896 192.004079 C 326.472292 192.004079 327.644167 190.832293 327.644167 189.335011 C 327.644167 187.837729 326.472292 186.665943 324.974896 186.665943 C 323.542604 186.665943 322.305625 187.837729 322.305625 189.335011 C 322.305625 190.832293 323.542604 192.004079 324.974896 192.004079 Z M 324.974896 192.004079 " transform="matrix(0.06,0,0,0.0600046,-0.0024,-5.763308)"/>
<path style=" stroke:none;fill-rule:nonzero;fill:rgb(100%,100%,100%);fill-opacity:1;" d="M 19.160156 5.714844 C 19.25 5.714844 19.320312 5.640625 19.320312 5.554688 C 19.320312 5.464844 19.25 5.394531 19.160156 5.394531 C 19.074219 5.394531 19 5.464844 19 5.554688 C 19 5.640625 19.074219 5.714844 19.160156 5.714844 "/>
<path style="fill:none;stroke-width:1.006399;stroke-linecap:butt;stroke-linejoin:miter;stroke:rgb(0%,0%,0%);stroke-opacity:1;stroke-miterlimit:4;" d="M 319.375938 191.287988 C 320.873333 191.287988 322.045208 190.051103 322.045208 188.61892 C 322.045208 187.121638 320.873333 185.949852 319.375938 185.949852 C 317.943646 185.949852 316.706667 187.121638 316.706667 188.61892 C 316.706667 190.051103 317.943646 191.287988 319.375938 191.287988 Z M 319.375938 191.287988 " transform="matrix(0.06,0,0,0.0600046,-0.0024,-5.763308)"/>
<path style=" stroke:none;fill-rule:nonzero;fill:rgb(100%,100%,100%);fill-opacity:1;" d="M 19.378906 7.023438 C 19.464844 7.023438 19.539062 6.949219 19.539062 6.863281 C 19.539062 6.773438 19.464844 6.703125 19.378906 6.703125 C 19.289062 6.703125 19.21875 6.773438 19.21875 6.863281 C 19.21875 6.949219 19.289062 7.023438 19.378906 7.023438 "/>
<path style="fill:none;stroke-width:1.006399;stroke-linecap:butt;stroke-linejoin:miter;stroke:rgb(0%,0%,0%);stroke-opacity:1;stroke-miterlimit:4;" d="M 323.021771 213.096226 C 324.454063 213.096226 325.691042 211.859341 325.691042 210.427158 C 325.691042 208.929876 324.454063 207.75809 323.021771 207.75809 C 321.524375 207.75809 320.3525 208.929876 320.3525 210.427158 C 320.3525 211.859341 321.524375 213.096226 323.021771 213.096226 Z M 323.021771 213.096226 " transform="matrix(0.06,0,0,0.0600046,-0.0024,-5.763308)"/>
<path style=" stroke:none;fill-rule:nonzero;fill:rgb(100%,100%,100%);fill-opacity:1;" d="M 19.460938 6.714844 C 19.550781 6.714844 19.621094 6.640625 19.621094 6.554688 C 19.621094 6.464844 19.550781 6.394531 19.460938 6.394531 C 19.371094 6.394531 19.300781 6.464844 19.300781 6.554688 C 19.300781 6.640625 19.371094 6.714844 19.460938 6.714844 "/>
<path style="fill:none;stroke-width:1.006399;stroke-linecap:butt;stroke-linejoin:miter;stroke:rgb(0%,0%,0%);stroke-opacity:1;stroke-miterlimit:4;" d="M 324.388958 207.953388 C 325.886354 207.953388 327.058229 206.716503 327.058229 205.28432 C 327.058229 203.787038 325.886354 202.615252 324.388958 202.615252 C 322.891563 202.615252 321.719688 203.787038 321.719688 205.28432 C 321.719688 206.716503 322.891563 207.953388 324.388958 207.953388 Z M 324.388958 207.953388 " transform="matrix(0.06,0,0,0.0600046,-0.0024,-5.763308)"/>
<path style=" stroke:none;fill-rule:nonzero;fill:rgb(100%,100%,100%);fill-opacity:1;" d="M 18.117188 5.6875 C 18.203125 5.6875 18.277344 5.617188 18.277344 5.53125 C 18.277344 5.441406 18.203125 5.371094 18.117188 5.371094 C 18.027344 5.371094 17.957031 5.441406 17.957031 5.53125 C 17.957031 5.617188 18.027344 5.6875 18.117188 5.6875 "/>
<path style="fill:none;stroke-width:1.006399;stroke-linecap:butt;stroke-linejoin:miter;stroke:rgb(0%,0%,0%);stroke-opacity:1;stroke-miterlimit:4;" d="M 301.993125 190.832293 C 303.425417 190.832293 304.662396 189.660507 304.662396 188.228325 C 304.662396 186.731043 303.425417 185.559257 301.993125 185.559257 C 300.495729 185.559257 299.323854 186.731043 299.323854 188.228325 C 299.323854 189.660507 300.495729 190.832293 301.993125 190.832293 Z M 301.993125 190.832293 " transform="matrix(0.06,0,0,0.0600046,-0.0024,-5.763308)"/>
<path style=" stroke:none;fill-rule:nonzero;fill:rgb(100%,100%,100%);fill-opacity:1;" d="M 17.332031 5.644531 C 17.421875 5.644531 17.492188 5.574219 17.492188 5.484375 C 17.492188 5.398438 17.421875 5.324219 17.332031 5.324219 C 17.246094 5.324219 17.171875 5.398438 17.171875 5.484375 C 17.171875 5.574219 17.246094 5.644531 17.332031 5.644531 "/>
<path style="fill:none;stroke-width:1.006399;stroke-linecap:butt;stroke-linejoin:miter;stroke:rgb(0%,0%,0%);stroke-opacity:1;stroke-miterlimit:4;" d="M 288.907188 190.116202 C 290.404583 190.116202 291.576458 188.944416 291.576458 187.447134 C 291.576458 186.014951 290.404583 184.778066 288.907188 184.778066 C 287.474896 184.778066 286.237917 186.014951 286.237917 187.447134 C 286.237917 188.944416 287.474896 190.116202 288.907188 190.116202 Z M 288.907188 190.116202 " transform="matrix(0.06,0,0,0.0600046,-0.0024,-5.763308)"/>
<path style=" stroke:none;fill-rule:nonzero;fill:rgb(100%,100%,100%);fill-opacity:1;" d="M 17.144531 5.636719 C 17.234375 5.636719 17.304688 5.566406 17.304688 5.476562 C 17.304688 5.390625 17.234375 5.320312 17.144531 5.320312 C 17.054688 5.320312 16.984375 5.390625 16.984375 5.476562 C 16.984375 5.566406 17.054688 5.636719 17.144531 5.636719 "/>
<path style="fill:none;stroke-width:1.006399;stroke-linecap:butt;stroke-linejoin:miter;stroke:rgb(0%,0%,0%);stroke-opacity:1;stroke-miterlimit:4;" d="M 285.782188 189.986004 C 287.279583 189.986004 288.451458 188.814218 288.451458 187.316936 C 288.451458 185.884753 287.279583 184.712967 285.782188 184.712967 C 284.284792 184.712967 283.112917 185.884753 283.112917 187.316936 C 283.112917 188.814218 284.284792 189.986004 285.782188 189.986004 Z M 285.782188 189.986004 " transform="matrix(0.06,0,0,0.0600046,-0.0024,-5.763308)"/>
<path style=" stroke:none;fill-rule:nonzero;fill:rgb(100%,100%,100%);fill-opacity:1;" d="M 16.128906 7.027344 C 16.214844 7.027344 16.289062 6.953125 16.289062 6.867188 C 16.289062 6.777344 16.214844 6.707031 16.128906 6.707031 C 16.039062 6.707031 15.96875 6.777344 15.96875 6.867188 C 15.96875 6.953125 16.039062 7.027344 16.128906 7.027344 "/>
<path style="fill:none;stroke-width:1.006399;stroke-linecap:butt;stroke-linejoin:miter;stroke:rgb(0%,0%,0%);stroke-opacity:1;stroke-miterlimit:4;" d="M 268.855104 213.161326 C 270.287396 213.161326 271.524375 211.92444 271.524375 210.492258 C 271.524375 208.994976 270.287396 207.82319 268.855104 207.82319 C 267.357708 207.82319 266.185833 208.994976 266.185833 210.492258 C 266.185833 211.92444 267.357708 213.161326 268.855104 213.161326 Z M 268.855104 213.161326 " transform="matrix(0.06,0,0,0.0600046,-0.0024,-5.763308)"/>
<path style=" stroke:none;fill-rule:nonzero;fill:rgb(100%,100%,100%);fill-opacity:1;" d="M 16.082031 6.644531 C 16.167969 6.644531 16.242188 6.570312 16.242188 6.484375 C 16.242188 6.394531 16.167969 6.324219 16.082031 6.324219 C 15.992188 6.324219 15.921875 6.394531 15.921875 6.484375 C 15.921875 6.570312 15.992188 6.644531 16.082031 6.644531 "/>
<path style="fill:none;stroke-width:1.006399;stroke-linecap:butt;stroke-linejoin:miter;stroke:rgb(0%,0%,0%);stroke-opacity:1;stroke-miterlimit:4;" d="M 268.073854 206.781602 C 269.506146 206.781602 270.743125 205.544717 270.743125 204.112534 C 270.743125 202.615252 269.506146 201.443466 268.073854 201.443466 C 266.576458 201.443466 265.404583 202.615252 265.404583 204.112534 C 265.404583 205.544717 266.576458 206.781602 268.073854 206.781602 Z M 268.073854 206.781602 " transform="matrix(0.06,0,0,0.0600046,-0.0024,-5.763308)"/>
<path style=" stroke:none;fill-rule:nonzero;fill:rgb(100%,100%,100%);fill-opacity:1;" d="M 16.195312 6.273438 C 16.28125 6.273438 16.355469 6.203125 16.355469 6.113281 C 16.355469 6.027344 16.28125 5.953125 16.195312 5.953125 C 16.105469 5.953125 16.035156 6.027344 16.035156 6.113281 C 16.035156 6.203125 16.105469 6.273438 16.195312 6.273438 "/>
<path style="fill:none;stroke-width:1.006399;stroke-linecap:butt;stroke-linejoin:miter;stroke:rgb(0%,0%,0%);stroke-opacity:1;stroke-miterlimit:4;" d="M 269.961875 200.597176 C 271.394167 200.597176 272.631146 199.42539 272.631146 197.928108 C 272.631146 196.495925 271.394167 195.25904 269.961875 195.25904 C 268.464479 195.25904 267.292604 196.495925 267.292604 197.928108 C 267.292604 199.42539 268.464479 200.597176 269.961875 200.597176 Z M 269.961875 200.597176 " transform="matrix(0.06,0,0,0.0600046,-0.0024,-5.763308)"/>
<path style=" stroke:none;fill-rule:nonzero;fill:rgb(100%,100%,100%);fill-opacity:1;" d="M 16.898438 5.675781 C 16.984375 5.675781 17.058594 5.601562 17.058594 5.515625 C 17.058594 5.425781 16.984375 5.355469 16.898438 5.355469 C 16.808594 5.355469 16.738281 5.425781 16.738281 5.515625 C 16.738281 5.601562 16.808594 5.675781 16.898438 5.675781 "/>
<path style="fill:none;stroke-width:1.006399;stroke-linecap:butt;stroke-linejoin:miter;stroke:rgb(0%,0%,0%);stroke-opacity:1;stroke-miterlimit:4;" d="M 281.680625 190.636996 C 283.112917 190.636996 284.349896 189.400111 284.349896 187.967928 C 284.349896 186.470646 283.112917 185.29886 281.680625 185.29886 C 280.183229 185.29886 279.011354 186.470646 279.011354 187.967928 C 279.011354 189.400111 280.183229 190.636996 281.680625 190.636996 Z M 281.680625 190.636996 " transform="matrix(0.06,0,0,0.0600046,-0.0024,-5.763308)"/>
<path style=" stroke:none;fill-rule:nonzero;fill:rgb(100%,100%,100%);fill-opacity:1;" d="M 16.632812 5.785156 C 16.71875 5.785156 16.792969 5.710938 16.792969 5.625 C 16.792969 5.535156 16.71875 5.464844 16.632812 5.464844 C 16.542969 5.464844 16.472656 5.535156 16.472656 5.625 C 16.472656 5.710938 16.542969 5.785156 16.632812 5.785156 "/>
<path style="fill:none;stroke-width:1.006399;stroke-linecap:butt;stroke-linejoin:miter;stroke:rgb(0%,0%,0%);stroke-opacity:1;stroke-miterlimit:4;" d="M 277.253542 192.459774 C 278.685833 192.459774 279.922813 191.222889 279.922813 189.790706 C 279.922813 188.293424 278.685833 187.121638 277.253542 187.121638 C 275.756146 187.121638 274.584271 188.293424 274.584271 189.790706 C 274.584271 191.222889 275.756146 192.459774 277.253542 192.459774 Z M 277.253542 192.459774 " transform="matrix(0.06,0,0,0.0600046,-0.0024,-5.763308)"/>
<path style=" stroke:none;fill-rule:nonzero;fill:rgb(100%,100%,100%);fill-opacity:1;" d="M 16.378906 6 C 16.464844 6 16.535156 5.925781 16.535156 5.839844 C 16.535156 5.75 16.464844 5.679688 16.378906 5.679688 C 16.289062 5.679688 16.21875 5.75 16.21875 5.839844 C 16.21875 5.925781 16.289062 6 16.378906 6 "/>
<path style="fill:none;stroke-width:1.006399;stroke-linecap:butt;stroke-linejoin:miter;stroke:rgb(0%,0%,0%);stroke-opacity:1;stroke-miterlimit:4;" d="M 273.021771 196.040231 C 274.454063 196.040231 275.625938 194.803346 275.625938 193.371163 C 275.625938 191.873881 274.454063 190.702095 273.021771 190.702095 C 271.524375 190.702095 270.3525 191.873881 270.3525 193.371163 C 270.3525 194.803346 271.524375 196.040231 273.021771 196.040231 Z M 273.021771 196.040231 " transform="matrix(0.06,0,0,0.0600046,-0.0024,-5.763308)"/>
<path style=" stroke:none;fill-rule:nonzero;fill:rgb(100%,100%,100%);fill-opacity:1;" d="M 17.769531 5.90625 C 17.859375 5.90625 17.929688 5.832031 17.929688 5.746094 C 17.929688 5.65625 17.859375 5.585938 17.769531 5.585938 C 17.679688 5.585938 17.609375 5.65625 17.609375 5.746094 C 17.609375 5.832031 17.679688 5.90625 17.769531 5.90625 "/>
<path style="fill:none;stroke-width:1.006399;stroke-linecap:butt;stroke-linejoin:miter;stroke:rgb(0%,0%,0%);stroke-opacity:1;stroke-miterlimit:4;" d="M 296.198854 194.47785 C 297.69625 194.47785 298.868125 193.240965 298.868125 191.808782 C 298.868125 190.3115 297.69625 189.139714 296.198854 189.139714 C 294.701458 189.139714 293.529583 190.3115 293.529583 191.808782 C 293.529583 193.240965 294.701458 194.47785 296.198854 194.47785 Z M 296.198854 194.47785 " transform="matrix(0.06,0,0,0.0600046,-0.0024,-5.763308)"/>
<path style=" stroke:none;fill-rule:nonzero;fill:rgb(100%,100%,100%);fill-opacity:1;" d="M 17.769531 6.207031 C 17.859375 6.207031 17.929688 6.132812 17.929688 6.046875 C 17.929688 5.957031 17.859375 5.886719 17.769531 5.886719 C 17.679688 5.886719 17.609375 5.957031 17.609375 6.046875 C 17.609375 6.132812 17.679688 6.207031 17.769531 6.207031 "/>
<path style="fill:none;stroke-width:1.006399;stroke-linecap:butt;stroke-linejoin:miter;stroke:rgb(0%,0%,0%);stroke-opacity:1;stroke-miterlimit:4;" d="M 296.198854 199.49049 C 297.69625 199.49049 298.868125 198.253604 298.868125 196.821422 C 298.868125 195.32414 297.69625 194.152354 296.198854 194.152354 C 294.701458 194.152354 293.529583 195.32414 293.529583 196.821422 C 293.529583 198.253604 294.701458 199.49049 296.198854 199.49049 Z M 296.198854 199.49049 " transform="matrix(0.06,0,0,0.0600046,-0.0024,-5.763308)"/>
<path style=" stroke:none;fill-rule:nonzero;fill:rgb(100%,100%,100%);fill-opacity:1;" d="M 17.769531 6.53125 C 17.859375 6.53125 17.929688 6.457031 17.929688 6.371094 C 17.929688 6.28125 17.859375 6.210938 17.769531 6.210938 C 17.679688 6.210938 17.609375 6.28125 17.609375 6.371094 C 17.609375 6.457031 17.679688 6.53125 17.769531 6.53125 "/>
<path style="fill:none;stroke-width:1.006399;stroke-linecap:butt;stroke-linejoin:miter;stroke:rgb(0%,0%,0%);stroke-opacity:1;stroke-miterlimit:4;" d="M 296.198854 204.893725 C 297.69625 204.893725 298.868125 203.65684 298.868125 202.224657 C 298.868125 200.727375 297.69625 199.555589 296.198854 199.555589 C 294.701458 199.555589 293.529583 200.727375 293.529583 202.224657 C 293.529583 203.65684 294.701458 204.893725 296.198854 204.893725 Z M 296.198854 204.893725 " transform="matrix(0.06,0,0,0.0600046,-0.0024,-5.763308)"/>
<path style=" stroke:none;fill-rule:nonzero;fill:rgb(100%,100%,100%);fill-opacity:1;" d="M 18.324219 5.648438 C 18.410156 5.648438 18.484375 5.574219 18.484375 5.488281 C 18.484375 5.398438 18.410156 5.328125 18.324219 5.328125 C 18.234375 5.328125 18.164062 5.398438 18.164062 5.488281 C 18.164062 5.574219 18.234375 5.648438 18.324219 5.648438 "/>
<path style="fill:none;stroke-width:1.006399;stroke-linecap:butt;stroke-linejoin:miter;stroke:rgb(0%,0%,0%);stroke-opacity:1;stroke-miterlimit:4;" d="M 305.443646 190.181301 C 306.875938 190.181301 308.112917 188.944416 308.112917 187.512233 C 308.112917 186.014951 306.875938 184.843165 305.443646 184.843165 C 303.94625 184.843165 302.774375 186.014951 302.774375 187.512233 C 302.774375 188.944416 303.94625 190.181301 305.443646 190.181301 Z M 305.443646 190.181301 " transform="matrix(0.06,0,0,0.0600046,-0.0024,-5.763308)"/>
<path style=" stroke:none;fill-rule:nonzero;fill:rgb(100%,100%,100%);fill-opacity:1;" d="M 18.542969 5.601562 C 18.628906 5.601562 18.703125 5.53125 18.703125 5.441406 C 18.703125 5.355469 18.628906 5.28125 18.542969 5.28125 C 18.453125 5.28125 18.382812 5.355469 18.382812 5.441406 C 18.382812 5.53125 18.453125 5.601562 18.542969 5.601562 "/>
<path style="fill:none;stroke-width:1.006399;stroke-linecap:butt;stroke-linejoin:miter;stroke:rgb(0%,0%,0%);stroke-opacity:1;stroke-miterlimit:4;" d="M 309.089479 189.400111 C 310.521771 189.400111 311.75875 188.228325 311.75875 186.731043 C 311.75875 185.29886 310.521771 184.061975 309.089479 184.061975 C 307.592083 184.061975 306.420208 185.29886 306.420208 186.731043 C 306.420208 188.228325 307.592083 189.400111 309.089479 189.400111 Z M 309.089479 189.400111 " transform="matrix(0.06,0,0,0.0600046,-0.0024,-5.763308)"/>
<path style=" stroke:none;fill-rule:nonzero;fill:rgb(100%,100%,100%);fill-opacity:1;" d="M 18.789062 5.640625 C 18.878906 5.640625 18.949219 5.570312 18.949219 5.480469 C 18.949219 5.394531 18.878906 5.320312 18.789062 5.320312 C 18.699219 5.320312 18.628906 5.394531 18.628906 5.480469 C 18.628906 5.570312 18.699219 5.640625 18.789062 5.640625 "/>
<path style="fill:none;stroke-width:1.006399;stroke-linecap:butt;stroke-linejoin:miter;stroke:rgb(0%,0%,0%);stroke-opacity:1;stroke-miterlimit:4;" d="M 313.191042 190.051103 C 314.688438 190.051103 315.860313 188.879317 315.860313 187.382035 C 315.860313 185.949852 314.688438 184.712967 313.191042 184.712967 C 311.693646 184.712967 310.521771 185.949852 310.521771 187.382035 C 310.521771 188.879317 311.693646 190.051103 313.191042 190.051103 Z M 313.191042 190.051103 " transform="matrix(0.06,0,0,0.0600046,-0.0024,-5.763308)"/>
<path style=" stroke:none;fill-rule:nonzero;fill:rgb(100%,100%,100%);fill-opacity:1;" d="M 19.40625 6.320312 C 19.496094 6.320312 19.566406 6.25 19.566406 6.160156 C 19.566406 6.074219 19.496094 6 19.40625 6 C 19.320312 6 19.25 6.074219 19.25 6.160156 C 19.25 6.25 19.320312 6.320312 19.40625 6.320312 "/>
<path style="fill:none;stroke-width:1.006399;stroke-linecap:butt;stroke-linejoin:miter;stroke:rgb(0%,0%,0%);stroke-opacity:1;stroke-miterlimit:4;" d="M 323.4775 201.378367 C 324.974896 201.378367 326.146771 200.206581 326.146771 198.709299 C 326.146771 197.277116 324.974896 196.040231 323.4775 196.040231 C 322.045208 196.040231 320.873333 197.277116 320.873333 198.709299 C 320.873333 200.206581 322.045208 201.378367 323.4775 201.378367 Z M 323.4775 201.378367 " transform="matrix(0.06,0,0,0.0600046,-0.0024,-5.763308)"/>
<path style=" stroke:none;fill-rule:nonzero;fill:rgb(100%,100%,100%);fill-opacity:1;" d="M 19.039062 5.785156 C 19.125 5.785156 19.199219 5.714844 19.199219 5.625 C 19.199219 5.535156 19.125 5.464844 19.039062 5.464844 C 18.949219 5.464844 18.878906 5.535156 18.878906 5.625 C 18.878906 5.714844 18.949219 5.785156 19.039062 5.785156 "/>
<path style="fill:none;stroke-width:1.006399;stroke-linecap:butt;stroke-linejoin:miter;stroke:rgb(0%,0%,0%);stroke-opacity:1;stroke-miterlimit:4;" d="M 317.357708 192.459774 C 318.79 192.459774 320.026979 191.287988 320.026979 189.790706 C 320.026979 188.293424 318.79 187.121638 317.357708 187.121638 C 315.860313 187.121638 314.688438 188.293424 314.688438 189.790706 C 314.688438 191.287988 315.860313 192.459774 317.357708 192.459774 Z M 317.357708 192.459774 " transform="matrix(0.06,0,0,0.0600046,-0.0024,-5.763308)"/>
<path style=" stroke:none;fill-rule:nonzero;fill:rgb(100%,100%,100%);fill-opacity:1;" d="M 19.265625 6.003906 C 19.351562 6.003906 19.425781 5.933594 19.425781 5.84375 C 19.425781 5.757812 19.351562 5.683594 19.265625 5.683594 C 19.175781 5.683594 19.105469 5.757812 19.105469 5.84375 C 19.105469 5.933594 19.175781 6.003906 19.265625 6.003906 "/>
<path style="fill:none;stroke-width:1.006399;stroke-linecap:butt;stroke-linejoin:miter;stroke:rgb(0%,0%,0%);stroke-opacity:1;stroke-miterlimit:4;" d="M 321.13375 196.10533 C 322.566042 196.10533 323.803021 194.933544 323.803021 193.436262 C 323.803021 192.004079 322.566042 190.767194 321.13375 190.767194 C 319.636354 190.767194 318.464479 192.004079 318.464479 193.436262 C 318.464479 194.933544 319.636354 196.10533 321.13375 196.10533 Z M 321.13375 196.10533 " transform="matrix(0.06,0,0,0.0600046,-0.0024,-5.763308)"/>
<path style="fill-rule:nonzero;fill:rgb(100%,100%,100%);fill-opacity:1;stroke-width:0.501998;stroke-linecap:butt;stroke-linejoin:miter;stroke:rgb(0%,0%,0%);stroke-opacity:1;stroke-miterlimit:4;" d="M 296.003542 236.076251 L 288.972292 239.591609 L 295.287396 243.562661 L 302.839479 239.786906 L 296.003542 236.076251 " transform="matrix(0.06,0,0,0.0600046,-0.0024,-5.763308)"/>
<path style=" stroke:none;fill-rule:nonzero;fill:rgb(100%,100%,100%);fill-opacity:1;" d="M 16.835938 8.445312 L 16.203125 8.542969 C 16.203125 8.542969 16.195312 8.882812 16.222656 8.964844 L 16.871094 8.875 C 16.871094 8.875 16.902344 8.558594 16.835938 8.445312 "/>
<path style="fill:none;stroke-width:0.501998;stroke-linecap:butt;stroke-linejoin:miter;stroke:rgb(0%,0%,0%);stroke-opacity:1;stroke-miterlimit:4;" d="M 280.638958 236.792342 L 270.092083 238.419823 C 270.092083 238.419823 269.961875 244.083455 270.417604 245.450538 L 281.224896 243.953256 C 281.224896 243.953256 281.745729 238.680219 280.638958 236.792342 Z M 280.638958 236.792342 " transform="matrix(0.06,0,0,0.0600046,-0.0024,-5.763308)"/>
<path style="fill-rule:nonzero;fill:rgb(1.960784%,55.686275%,43.137255%);fill-opacity:0.941176;stroke-width:0.501998;stroke-linecap:butt;stroke-linejoin:miter;stroke:rgb(0%,0%,0%);stroke-opacity:1;stroke-miterlimit:4;" d="M 279.467083 238.810418 C 279.467083 238.810418 273.086875 239.396311 271.524375 239.982204 L 271.589479 243.823058 C 271.589479 243.823058 275.756146 243.106966 279.597292 242.716371 L 279.467083 238.810418 " transform="matrix(0.06,0,0,0.0600046,-0.0024,-5.763308)"/>
<path style=" stroke:none;fill-rule:nonzero;fill:rgb(100%,100%,100%);fill-opacity:1;" d="M 18.640625 8.464844 L 19.277344 8.5625 C 19.277344 8.5625 19.285156 8.902344 19.253906 8.984375 L 18.605469 8.894531 C 18.605469 8.894531 18.574219 8.578125 18.640625 8.464844 "/>
<path style="fill:none;stroke-width:0.501998;stroke-linecap:butt;stroke-linejoin:miter;stroke:rgb(0%,0%,0%);stroke-opacity:1;stroke-miterlimit:4;" d="M 310.717083 237.117838 L 321.329063 238.745319 C 321.329063 238.745319 321.459271 244.408951 320.938438 245.776034 L 310.131146 244.278752 C 310.131146 244.278752 309.610313 239.005716 310.717083 237.117838 Z M 310.717083 237.117838 " transform="matrix(0.06,0,0,0.0600046,-0.0024,-5.763308)"/>
<path style="fill-rule:nonzero;fill:rgb(1.960784%,55.686275%,43.137255%);fill-opacity:0.941176;stroke-width:0.501998;stroke-linecap:butt;stroke-linejoin:miter;stroke:rgb(0%,0%,0%);stroke-opacity:1;stroke-miterlimit:4;" d="M 311.888958 239.135914 C 311.888958 239.135914 318.269167 239.721807 319.896771 240.3077 L 319.766563 244.148554 C 319.766563 244.148554 315.599896 243.367363 311.75875 243.041867 L 311.888958 239.135914 " transform="matrix(0.06,0,0,0.0600046,-0.0024,-5.763308)"/>
<path style="fill:none;stroke-width:0.501998;stroke-linecap:butt;stroke-linejoin:miter;stroke:rgb(0%,0%,0%);stroke-opacity:1;stroke-miterlimit:4;" d="M 254.206667 241.804982 C 254.206667 241.804982 291.250938 228.069047 338.386354 242.976768 M 255.704063 249.747087 C 255.704063 249.747087 291.576458 236.336648 335.782188 250.33298 M 255.899375 241.284188 L 263.125938 243.432462 L 258.047813 248.770598 " transform="matrix(0.06,0,0,0.0600046,-0.0024,-5.763308)"/>
<path style=" stroke:none;fill-rule:nonzero;fill:rgb(100%,0%,0%);fill-opacity:1;" d="M 15.363281 9.105469 L 15.609375 8.898438 L 15.328125 8.84375 C 15.328125 8.84375 15.363281 8.886719 15.355469 8.925781 C 15.347656 8.964844 15.359375 9.070312 15.363281 9.105469 "/>
<path style="fill:none;stroke-width:0.501998;stroke-linecap:butt;stroke-linejoin:miter;stroke:rgb(0%,0%,0%);stroke-opacity:1;stroke-miterlimit:4;" d="M 256.094688 247.79411 L 260.19625 244.343852 L 255.50875 243.432462 C 255.50875 243.432462 256.094688 244.148554 255.964479 244.799546 C 255.834271 245.450538 256.029583 247.208217 256.094688 247.79411 Z M 256.094688 247.79411 " transform="matrix(0.06,0,0,0.0600046,-0.0024,-5.763308)"/>
<path style="fill:none;stroke-width:0.501998;stroke-linecap:butt;stroke-linejoin:miter;stroke:rgb(0%,0%,0%);stroke-opacity:1;stroke-miterlimit:4;" d="M 337.605104 242.716371 L 329.922813 244.083455 L 335.066042 250.137682 " transform="matrix(0.06,0,0,0.0600046,-0.0024,-5.763308)"/>
<path style=" stroke:none;fill-rule:nonzero;fill:rgb(100%,0%,0%);fill-opacity:1;" d="M 20.117188 9.117188 L 19.945312 8.933594 L 20.191406 8.914062 C 20.191406 8.914062 20.125 8.957031 20.125 8.996094 C 20.125 9.035156 20.132812 9.085938 20.117188 9.117188 "/>
<path style="fill:none;stroke-width:0.501998;stroke-linecap:butt;stroke-linejoin:miter;stroke:rgb(0%,0%,0%);stroke-opacity:1;stroke-miterlimit:4;" d="M 335.326458 247.989408 L 332.461875 244.929745 L 336.563438 244.604248 C 336.563438 244.604248 335.456667 245.32034 335.456667 245.971332 C 335.456667 246.622324 335.586875 247.468614 335.326458 247.989408 Z M 335.326458 247.989408 " transform="matrix(0.06,0,0,0.0600046,-0.0024,-5.763308)"/>
<path style="fill:none;stroke-width:0.501998;stroke-linecap:butt;stroke-linejoin:miter;stroke:rgb(0%,0%,0%);stroke-opacity:1;stroke-miterlimit:4;" d="M 265.274375 241.870081 C 265.925417 241.870081 266.44625 241.414387 266.44625 240.893593 C 266.44625 240.372799 265.925417 239.917105 265.274375 239.917105 C 264.623333 239.917105 264.1025 240.372799 264.1025 240.893593 C 264.1025 241.414387 264.623333 241.870081 265.274375 241.870081 Z M 285.912396 239.526509 C 286.563438 239.526509 287.084271 239.070815 287.084271 238.550021 C 287.084271 238.029227 286.563438 237.573533 285.912396 237.573533 C 285.261354 237.573533 284.740521 238.029227 284.740521 238.550021 C 284.740521 239.070815 285.261354 239.526509 285.912396 239.526509 Z M 285.912396 242.846569 C 286.563438 242.846569 287.084271 242.455974 287.084271 241.870081 C 287.084271 241.349287 286.563438 240.958692 285.912396 240.958692 C 285.261354 240.958692 284.740521 241.349287 284.740521 241.870081 C 284.740521 242.455974 285.261354 242.846569 285.912396 242.846569 Z M 306.159792 239.656708 C 306.810833 239.656708 307.396771 239.266112 307.396771 238.745319 C 307.396771 238.224525 306.810833 237.76883 306.159792 237.76883 C 305.50875 237.76883 304.987917 238.224525 304.987917 238.745319 C 304.987917 239.266112 305.50875 239.656708 306.159792 239.656708 Z M 326.276979 243.367363 C 326.928021 243.367363 327.513958 242.911669 327.513958 242.390875 C 327.513958 241.870081 326.928021 241.479486 326.276979 241.479486 C 325.625938 241.479486 325.105104 241.870081 325.105104 242.390875 C 325.105104 242.911669 325.625938 243.367363 326.276979 243.367363 Z M 325.951458 246.036431 C 326.6025 246.036431 327.123333 245.580737 327.123333 245.059943 C 327.123333 244.539149 326.6025 244.148554 325.951458 244.148554 C 325.300417 244.148554 324.779583 244.539149 324.779583 245.059943 C 324.779583 245.580737 325.300417 246.036431 325.951458 246.036431 Z M 306.159792 243.041867 C 306.810833 243.041867 307.396771 242.586173 307.396771 242.065379 C 307.396771 241.544585 306.810833 241.15399 306.159792 241.15399 C 305.50875 241.15399 304.987917 241.544585 304.987917 242.065379 C 304.987917 242.586173 305.50875 243.041867 306.159792 243.041867 Z M 266.316042 246.036431 C 266.967083 246.036431 267.487917 245.580737 267.487917 245.059943 C 267.487917 244.539149 266.967083 244.148554 266.316042 244.148554 C 265.599896 244.148554 265.079063 244.539149 265.079063 245.059943 C 265.079063 245.580737 265.599896 246.036431 266.316042 246.036431 Z M 266.316042 246.036431 " transform="matrix(0.06,0,0,0.0600046,-0.0024,-5.763308)"/>
<path style=" stroke:none;fill-rule:nonzero;fill:rgb(100%,80%,0%);fill-opacity:1;" d="M 15.210938 8.097656 C 15.210938 8.097656 15.222656 8.53125 15.503906 8.46875 C 15.785156 8.410156 15.753906 8.058594 15.773438 8.039062 C 15.792969 8.015625 15.824219 8.015625 15.824219 8.015625 C 15.824219 8.015625 15.863281 8.359375 16.125 8.320312 C 16.386719 8.277344 16.378906 7.855469 16.347656 7.785156 L 16.40625 7.765625 C 16.40625 7.765625 16.507812 8.257812 16.808594 8.1875 C 17.113281 8.117188 17.082031 7.804688 17.082031 7.804688 L 17.105469 7.804688 C 17.105469 7.804688 17.171875 8.136719 17.414062 8.117188 C 17.65625 8.097656 17.707031 8.015625 17.675781 7.6875 L 17.835938 7.65625 C 17.835938 7.65625 17.777344 8.136719 18.066406 8.128906 C 18.359375 8.117188 18.367188 7.886719 18.390625 7.847656 L 18.433594 7.847656 C 18.433594 7.847656 18.449219 8.1875 18.691406 8.1875 C 18.933594 8.1875 18.984375 7.898438 18.984375 7.785156 L 19.21875 7.796875 C 19.21875 7.796875 18.972656 8.25 19.335938 8.308594 C 19.695312 8.371094 19.707031 8.015625 19.707031 8.015625 L 19.777344 8.015625 C 19.777344 8.015625 19.765625 8.46875 19.96875 8.480469 C 20.167969 8.492188 20.289062 8.421875 20.308594 8.089844 L 20.421875 8.128906 C 20.421875 8.128906 20.324219 8.664062 19.949219 8.570312 C 19.746094 8.519531 19.6875 8.289062 19.695312 8.230469 C 19.695312 8.230469 19.554688 8.480469 19.285156 8.398438 C 19.011719 8.320312 19.042969 8.128906 19.042969 8.066406 C 19.042969 8.066406 18.878906 8.367188 18.652344 8.300781 C 18.449219 8.238281 18.367188 8.167969 18.367188 8.027344 C 18.367188 8.027344 18.269531 8.257812 18.066406 8.25 C 17.867188 8.238281 17.765625 8.117188 17.753906 8.007812 C 17.753906 8.007812 17.714844 8.222656 17.445312 8.238281 C 17.261719 8.25 17.160156 8.160156 17.121094 8.039062 C 17.121094 8.039062 17.070312 8.257812 16.808594 8.289062 C 16.648438 8.308594 16.488281 8.21875 16.449219 8.066406 C 16.449219 8.066406 16.40625 8.359375 16.144531 8.398438 C 15.882812 8.441406 15.824219 8.257812 15.824219 8.257812 C 15.824219 8.257812 15.773438 8.492188 15.5625 8.539062 C 15.351562 8.589844 15.210938 8.5 15.160156 8.289062 C 15.109375 8.078125 15.128906 7.988281 15.128906 7.988281 L 15.210938 8.097656 "/>
<path style="fill-rule:nonzero;fill:rgb(73.72549%,67.45098%,4.313725%);fill-opacity:1;stroke-width:0.653319;stroke-linecap:butt;stroke-linejoin:miter;stroke:rgb(0%,0%,0%);stroke-opacity:1;stroke-miterlimit:4;" d="M 253.555625 230.998512 C 253.555625 230.998512 253.750938 238.224525 258.438438 237.182937 C 263.125938 236.206449 262.605104 230.347519 262.930625 230.022023 C 263.256146 229.631428 263.776979 229.631428 263.776979 229.631428 C 263.776979 229.631428 264.428021 235.360159 268.79 234.709167 C 273.151979 233.993076 273.021771 226.96236 272.500938 225.790574 L 273.4775 225.465078 C 273.4775 225.465078 275.170208 233.66758 280.183229 232.495794 C 285.261354 231.324008 284.740521 226.11607 284.740521 226.11607 L 285.131146 226.11607 C 285.131146 226.11607 286.237917 231.649504 290.274375 231.324008 C 294.310833 230.998512 295.157188 229.631428 294.636354 224.163094 L 297.305625 223.6423 C 297.305625 223.6423 296.329063 231.649504 301.146771 231.519305 C 306.029583 231.324008 306.159792 227.483154 306.550417 226.832162 L 307.266563 226.832162 C 307.266563 226.832162 307.526979 232.495794 311.563438 232.495794 C 315.599896 232.495794 316.44625 227.678451 316.44625 225.790574 L 320.3525 225.985872 C 320.3525 225.985872 316.250938 233.537381 322.305625 234.513869 C 328.295208 235.555457 328.490521 229.631428 328.490521 229.631428 L 329.662396 229.631428 C 329.662396 229.631428 329.467083 237.182937 332.8525 237.378235 C 336.172813 237.573533 338.191042 236.401747 338.516563 230.868313 L 340.404583 231.519305 C 340.404583 231.519305 338.776979 240.437898 332.526979 238.875517 C 329.141563 238.029227 328.165 234.188373 328.295208 233.211885 C 328.295208 233.211885 325.951458 237.378235 321.459271 236.011151 C 316.901979 234.709167 317.422813 231.519305 317.422813 230.477718 C 317.422813 230.477718 314.688438 235.490358 310.912396 234.383671 C 307.526979 233.342084 306.159792 232.170298 306.159792 229.826726 C 306.159792 229.826726 304.532188 233.66758 301.146771 233.537381 C 297.826458 233.342084 296.13375 231.324008 295.938438 229.50123 C 295.938438 229.50123 295.287396 233.081687 290.795208 233.342084 C 287.735313 233.537381 286.042604 232.040099 285.391563 230.022023 C 285.391563 230.022023 284.545208 233.66758 280.183229 234.188373 C 277.513958 234.513869 274.844688 233.016587 274.193646 230.477718 C 274.193646 230.477718 273.4775 235.360159 269.115521 236.011151 C 264.753542 236.727243 263.776979 233.66758 263.776979 233.66758 C 263.776979 233.66758 262.930625 237.573533 259.415 238.354723 C 255.899375 239.201013 253.555625 237.703731 252.709271 234.188373 C 251.862917 230.673016 252.188438 229.175733 252.188438 229.175733 Z M 253.555625 230.998512 " transform="matrix(0.06,0,0,0.0600046,-0.0024,-5.763308)"/>
<path style=" stroke:none;fill-rule:nonzero;fill:rgb(100%,80%,0%);fill-opacity:1;" d="M 15.792969 8.117188 C 15.847656 8.117188 15.894531 8.074219 15.894531 8.015625 C 15.894531 7.960938 15.847656 7.917969 15.792969 7.917969 C 15.738281 7.917969 15.695312 7.960938 15.695312 8.015625 C 15.695312 8.074219 15.738281 8.117188 15.792969 8.117188 "/>
<path style="fill-rule:nonzero;fill:rgb(73.72549%,67.45098%,4.313725%);fill-opacity:1;stroke-width:0.653319;stroke-linecap:butt;stroke-linejoin:miter;stroke:rgb(0%,0%,0%);stroke-opacity:1;stroke-miterlimit:4;" d="M 263.256146 231.324008 C 264.167604 231.324008 264.948854 230.607916 264.948854 229.631428 C 264.948854 228.720039 264.167604 228.003948 263.256146 228.003948 C 262.344688 228.003948 261.628542 228.720039 261.628542 229.631428 C 261.628542 230.607916 262.344688 231.324008 263.256146 231.324008 Z M 263.256146 231.324008 " transform="matrix(0.06,0,0,0.0600046,-0.0024,-5.763308)"/>
<path style=" stroke:none;fill-rule:nonzero;fill:rgb(100%,80%,0%);fill-opacity:1;" d="M 17.105469 7.90625 C 17.160156 7.90625 17.203125 7.863281 17.203125 7.808594 C 17.203125 7.753906 17.160156 7.707031 17.105469 7.707031 C 17.050781 7.707031 17.003906 7.753906 17.003906 7.808594 C 17.003906 7.863281 17.050781 7.90625 17.105469 7.90625 "/>
<path style="fill-rule:nonzero;fill:rgb(73.72549%,67.45098%,4.313725%);fill-opacity:1;stroke-width:0.653319;stroke-linecap:butt;stroke-linejoin:miter;stroke:rgb(0%,0%,0%);stroke-opacity:1;stroke-miterlimit:4;" d="M 285.131146 227.80865 C 286.042604 227.80865 286.75875 227.092558 286.75875 226.181169 C 286.75875 225.26978 286.042604 224.48859 285.131146 224.48859 C 284.219688 224.48859 283.438438 225.26978 283.438438 226.181169 C 283.438438 227.092558 284.219688 227.80865 285.131146 227.80865 Z M 285.131146 227.80865 " transform="matrix(0.06,0,0,0.0600046,-0.0024,-5.763308)"/>
<path style=" stroke:none;fill-rule:nonzero;fill:rgb(100%,80%,0%);fill-opacity:1;" d="M 18.433594 7.945312 C 18.488281 7.945312 18.53125 7.902344 18.53125 7.847656 C 18.53125 7.792969 18.488281 7.746094 18.433594 7.746094 C 18.378906 7.746094 18.332031 7.792969 18.332031 7.847656 C 18.332031 7.902344 18.378906 7.945312 18.433594 7.945312 "/>
<path style="fill-rule:nonzero;fill:rgb(73.72549%,67.45098%,4.313725%);fill-opacity:1;stroke-width:0.653319;stroke-linecap:butt;stroke-linejoin:miter;stroke:rgb(0%,0%,0%);stroke-opacity:1;stroke-miterlimit:4;" d="M 307.266563 228.459642 C 308.178021 228.459642 308.894167 227.743551 308.894167 226.832162 C 308.894167 225.920773 308.178021 225.139582 307.266563 225.139582 C 306.355104 225.139582 305.573854 225.920773 305.573854 226.832162 C 305.573854 227.743551 306.355104 228.459642 307.266563 228.459642 Z M 307.266563 228.459642 " transform="matrix(0.06,0,0,0.0600046,-0.0024,-5.763308)"/>
<path style=" stroke:none;fill-rule:nonzero;fill:rgb(100%,80%,0%);fill-opacity:1;" d="M 19.75 8.15625 C 19.808594 8.15625 19.851562 8.113281 19.851562 8.058594 C 19.851562 8.003906 19.808594 7.957031 19.75 7.957031 C 19.695312 7.957031 19.652344 8.003906 19.652344 8.058594 C 19.652344 8.113281 19.695312 8.15625 19.75 8.15625 "/>
<path style="fill-rule:nonzero;fill:rgb(73.72549%,67.45098%,4.313725%);fill-opacity:1;stroke-width:0.653319;stroke-linecap:butt;stroke-linejoin:miter;stroke:rgb(0%,0%,0%);stroke-opacity:1;stroke-miterlimit:4;" d="M 329.206667 231.975 C 330.183229 231.975 330.899375 231.258908 330.899375 230.347519 C 330.899375 229.43613 330.183229 228.65494 329.206667 228.65494 C 328.295208 228.65494 327.579063 229.43613 327.579063 230.347519 C 327.579063 231.258908 328.295208 231.975 329.206667 231.975 Z M 329.206667 231.975 " transform="matrix(0.06,0,0,0.0600046,-0.0024,-5.763308)"/>
<path style=" stroke:none;fill-rule:nonzero;fill:rgb(100%,80%,0%);fill-opacity:1;" d="M 17.710938 7.796875 L 17.621094 7.796875 C 17.597656 7.886719 17.40625 7.945312 17.40625 7.945312 C 17.382812 7.871094 17.429688 7.769531 17.429688 7.769531 C 17.207031 7.714844 17.207031 7.632812 17.207031 7.632812 C 17.242188 7.558594 17.445312 7.546875 17.445312 7.546875 C 17.394531 7.480469 17.40625 7.371094 17.40625 7.371094 C 17.539062 7.378906 17.652344 7.511719 17.652344 7.511719 C 17.652344 7.511719 17.519531 7.445312 17.53125 7.203125 C 17.53125 7.203125 17.609375 7.199219 17.652344 7.25 C 17.652344 7.25 17.652344 6.988281 17.761719 6.960938 L 17.773438 6.960938 C 17.882812 6.988281 17.882812 7.25 17.882812 7.25 C 17.929688 7.199219 18.003906 7.203125 18.003906 7.203125 C 18.019531 7.445312 17.882812 7.511719 17.882812 7.511719 C 17.882812 7.511719 17.996094 7.378906 18.132812 7.371094 C 18.132812 7.371094 18.144531 7.480469 18.089844 7.546875 C 18.089844 7.546875 18.296875 7.558594 18.328125 7.632812 C 18.328125 7.632812 18.328125 7.714844 18.105469 7.769531 C 18.105469 7.769531 18.15625 7.871094 18.132812 7.945312 C 18.132812 7.945312 17.941406 7.886719 17.917969 7.796875 L 17.710938 7.796875 "/>
<path style="fill-rule:nonzero;fill:rgb(73.72549%,67.45098%,4.313725%);fill-opacity:1;stroke-width:0.653319;stroke-linecap:butt;stroke-linejoin:miter;stroke:rgb(0%,0%,0%);stroke-opacity:1;stroke-miterlimit:4;" d="M 295.222292 225.985872 L 293.724896 225.985872 C 293.334271 227.483154 290.144167 228.459642 290.144167 228.459642 C 289.753542 227.222757 290.534792 225.530177 290.534792 225.530177 C 286.823854 224.618788 286.823854 223.251705 286.823854 223.251705 C 287.409792 222.014819 290.795208 221.819522 290.795208 221.819522 C 289.948854 220.712835 290.144167 218.890057 290.144167 218.890057 C 292.357708 219.020255 294.245729 221.233629 294.245729 221.233629 C 294.245729 221.233629 292.032188 220.126942 292.2275 216.09079 C 292.2275 216.09079 293.529583 216.025691 294.245729 216.871981 C 294.245729 216.871981 294.245729 212.510333 296.068646 212.054639 L 296.263958 212.054639 C 298.086875 212.510333 298.086875 216.871981 298.086875 216.871981 C 298.868125 216.025691 300.105104 216.09079 300.105104 216.09079 C 300.365521 220.126942 298.086875 221.233629 298.086875 221.233629 C 298.086875 221.233629 299.974896 219.020255 302.253542 218.890057 C 302.253542 218.890057 302.448854 220.712835 301.537396 221.819522 C 301.537396 221.819522 304.987917 222.014819 305.50875 223.251705 C 305.50875 223.251705 305.50875 224.618788 301.797813 225.530177 C 301.797813 225.530177 302.644167 227.222757 302.253542 228.459642 C 302.253542 228.459642 299.063438 227.483154 298.672813 225.985872 Z M 295.222292 225.985872 " transform="matrix(0.06,0,0,0.0600046,-0.0024,-5.763308)"/>
<path style=" stroke:none;fill-rule:nonzero;fill:rgb(100%,100%,100%);fill-opacity:1;" d="M 17.761719 7.847656 C 17.863281 7.847656 17.945312 7.765625 17.945312 7.664062 C 17.945312 7.566406 17.863281 7.484375 17.761719 7.484375 C 17.660156 7.484375 17.578125 7.566406 17.578125 7.664062 C 17.578125 7.765625 17.660156 7.847656 17.761719 7.847656 "/>
<path style="fill:none;stroke-width:0.40352;stroke-linecap:butt;stroke-linejoin:miter;stroke:rgb(0%,0%,0%);stroke-opacity:1;stroke-miterlimit:4;" d="M 296.068646 226.832162 C 297.761354 226.832162 299.128542 225.465078 299.128542 223.772498 C 299.128542 222.145018 297.761354 220.777934 296.068646 220.777934 C 294.375938 220.777934 293.00875 222.145018 293.00875 223.772498 C 293.00875 225.465078 294.375938 226.832162 296.068646 226.832162 Z M 296.068646 226.832162 " transform="matrix(0.06,0,0,0.0600046,-0.0024,-5.763308)"/>
<path style=" stroke:none;fill-rule:nonzero;fill:rgb(100%,100%,100%);fill-opacity:1;" d="M 17.761719 7.765625 C 17.816406 7.765625 17.863281 7.71875 17.863281 7.664062 C 17.863281 7.609375 17.816406 7.566406 17.761719 7.566406 C 17.707031 7.566406 17.664062 7.609375 17.664062 7.664062 C 17.664062 7.71875 17.707031 7.765625 17.761719 7.765625 "/>
<path style="fill:none;stroke-width:0.2522;stroke-linecap:butt;stroke-linejoin:miter;stroke:rgb(0%,0%,0%);stroke-opacity:1;stroke-miterlimit:4;" d="M 296.068646 225.465078 C 296.980104 225.465078 297.761354 224.683887 297.761354 223.772498 C 297.761354 222.861109 296.980104 222.145018 296.068646 222.145018 C 295.157188 222.145018 294.441042 222.861109 294.441042 223.772498 C 294.441042 224.683887 295.157188 225.465078 296.068646 225.465078 Z M 296.068646 225.465078 " transform="matrix(0.06,0,0,0.0600046,-0.0024,-5.763308)"/>
<path style=" stroke:none;fill-rule:nonzero;fill:rgb(100%,80%,0%);fill-opacity:1;" d="M 19.144531 7.914062 L 19.234375 7.933594 C 19.234375 8.027344 19.410156 8.121094 19.410156 8.121094 C 19.449219 8.058594 19.421875 7.949219 19.421875 7.949219 C 19.652344 7.9375 19.667969 7.863281 19.667969 7.863281 C 19.652344 7.78125 19.453125 7.726562 19.453125 7.726562 C 19.519531 7.671875 19.53125 7.5625 19.53125 7.5625 C 19.398438 7.539062 19.257812 7.648438 19.257812 7.648438 C 19.257812 7.648438 19.40625 7.613281 19.441406 7.371094 C 19.441406 7.371094 19.367188 7.351562 19.316406 7.390625 C 19.316406 7.390625 19.371094 7.136719 19.269531 7.085938 L 19.257812 7.082031 C 19.144531 7.089844 19.089844 7.34375 19.089844 7.34375 C 19.054688 7.285156 18.980469 7.273438 18.980469 7.273438 C 18.914062 7.507812 19.035156 7.601562 19.035156 7.601562 C 19.035156 7.601562 18.953125 7.445312 18.820312 7.410156 C 18.820312 7.410156 18.785156 7.511719 18.824219 7.589844 C 18.824219 7.589844 18.621094 7.558594 18.574219 7.625 C 18.574219 7.625 18.558594 7.703125 18.761719 7.804688 C 18.761719 7.804688 18.691406 7.894531 18.699219 7.96875 C 18.699219 7.96875 18.898438 7.953125 18.941406 7.871094 L 19.03125 7.890625 L 19.144531 7.914062 "/>
<path style="fill-rule:nonzero;fill:rgb(73.72549%,67.45098%,4.313725%);fill-opacity:1;stroke-width:0.653319;stroke-linecap:butt;stroke-linejoin:miter;stroke:rgb(0%,0%,0%);stroke-opacity:1;stroke-miterlimit:4;" d="M 319.115521 227.938848 L 320.612917 228.264344 C 320.612917 229.826726 323.542604 231.389107 323.542604 231.389107 C 324.193646 230.347519 323.737917 228.524741 323.737917 228.524741 C 327.579063 228.329444 327.839479 227.092558 327.839479 227.092558 C 327.579063 225.725475 324.25875 224.814086 324.25875 224.814086 C 325.365521 223.902697 325.560833 222.079919 325.560833 222.079919 C 323.347292 221.689323 321.003542 223.512101 321.003542 223.512101 C 321.003542 223.512101 323.4775 222.926208 324.063438 218.890057 C 324.063438 218.890057 322.826458 218.564561 321.980104 219.215553 C 321.980104 219.215553 322.891563 214.984104 321.198854 214.137814 L 321.003542 214.072715 C 319.115521 214.202913 318.204063 218.434362 318.204063 218.434362 C 317.618125 217.457874 316.381146 217.262576 316.381146 217.262576 C 315.274375 221.16853 317.292604 222.730911 317.292604 222.730911 C 317.292604 222.730911 315.925417 220.126942 313.711875 219.541049 C 313.711875 219.541049 313.125938 221.233629 313.776979 222.535613 C 313.776979 222.535613 310.391563 222.014819 309.610313 223.121506 C 309.610313 223.121506 309.349896 224.42349 312.735313 226.11607 C 312.735313 226.11607 311.563438 227.613352 311.693646 228.850237 C 311.693646 228.850237 315.013958 228.589841 315.730104 227.222757 L 317.2275 227.548253 L 319.115521 227.938848 " transform="matrix(0.06,0,0,0.0600046,-0.0024,-5.763308)"/>
<path style=" stroke:none;fill-rule:nonzero;fill:rgb(100%,100%,100%);fill-opacity:1;" d="M 19.082031 7.953125 C 18.984375 7.933594 18.921875 7.835938 18.941406 7.738281 C 18.964844 7.640625 19.0625 7.578125 19.160156 7.597656 C 19.257812 7.617188 19.320312 7.714844 19.300781 7.8125 C 19.277344 7.914062 19.179688 7.976562 19.082031 7.953125 "/>
<path style="fill:none;stroke-width:0.40352;stroke-linecap:butt;stroke-linejoin:miter;stroke:rgb(0%,0%,0%);stroke-opacity:1;stroke-miterlimit:4;" d="M 318.073854 228.589841 C 316.44625 228.264344 315.404583 226.636864 315.730104 225.009383 C 316.120729 223.381903 317.748333 222.340315 319.375938 222.665812 C 321.003542 222.991308 322.045208 224.618788 321.719688 226.246269 C 321.329063 227.938848 319.701458 228.980436 318.073854 228.589841 Z M 318.073854 228.589841 " transform="matrix(0.06,0,0,0.0600046,-0.0024,-5.763308)"/>
<path style=" stroke:none;fill-rule:nonzero;fill:rgb(100%,100%,100%);fill-opacity:1;" d="M 19.101562 7.871094 C 19.046875 7.863281 19.011719 7.808594 19.023438 7.753906 C 19.035156 7.699219 19.089844 7.667969 19.140625 7.679688 C 19.195312 7.691406 19.230469 7.742188 19.21875 7.796875 C 19.207031 7.851562 19.152344 7.882812 19.101562 7.871094 "/>
<path style="fill:none;stroke-width:0.2522;stroke-linecap:butt;stroke-linejoin:miter;stroke:rgb(0%,0%,0%);stroke-opacity:1;stroke-miterlimit:4;" d="M 318.399375 227.222757 C 317.487917 227.092558 316.901979 226.181169 317.097292 225.26978 C 317.292604 224.358391 318.204063 223.837598 319.050417 224.032895 C 319.961875 224.228193 320.547813 225.074483 320.3525 225.985872 C 320.157188 226.897261 319.245729 227.418055 318.399375 227.222757 Z M 318.399375 227.222757 " transform="matrix(0.06,0,0,0.0600046,-0.0024,-5.763308)"/>
<path style=" stroke:none;fill-rule:nonzero;fill:rgb(100%,80%,0%);fill-opacity:1;" d="M 16.332031 7.898438 L 16.242188 7.910156 C 16.234375 8 16.050781 8.082031 16.050781 8.082031 C 16.019531 8.015625 16.054688 7.90625 16.054688 7.90625 C 15.824219 7.878906 15.816406 7.800781 15.816406 7.800781 C 15.839844 7.722656 16.039062 7.683594 16.039062 7.683594 C 15.976562 7.625 15.972656 7.515625 15.972656 7.515625 C 16.109375 7.503906 16.238281 7.625 16.238281 7.625 C 16.238281 7.625 16.097656 7.574219 16.078125 7.332031 C 16.078125 7.332031 16.152344 7.320312 16.207031 7.363281 C 16.207031 7.363281 16.171875 7.105469 16.273438 7.058594 L 16.285156 7.058594 C 16.398438 7.074219 16.433594 7.332031 16.433594 7.332031 C 16.472656 7.277344 16.546875 7.269531 16.546875 7.269531 C 16.59375 7.507812 16.46875 7.59375 16.46875 7.59375 C 16.46875 7.59375 16.5625 7.445312 16.695312 7.417969 C 16.695312 7.417969 16.722656 7.523438 16.679688 7.597656 C 16.679688 7.597656 16.882812 7.582031 16.925781 7.652344 C 16.925781 7.652344 16.9375 7.734375 16.722656 7.816406 C 16.722656 7.816406 16.785156 7.914062 16.773438 7.988281 C 16.773438 7.988281 16.574219 7.957031 16.539062 7.871094 L 16.449219 7.882812 L 16.332031 7.898438 "/>
<path style="fill-rule:nonzero;fill:rgb(73.72549%,67.45098%,4.313725%);fill-opacity:1;stroke-width:0.653319;stroke-linecap:butt;stroke-linejoin:miter;stroke:rgb(0%,0%,0%);stroke-opacity:1;stroke-miterlimit:4;" d="M 272.240521 227.678451 L 270.743125 227.873749 C 270.612917 229.371031 267.553021 230.738115 267.553021 230.738115 C 267.032188 229.631428 267.618125 227.80865 267.618125 227.80865 C 263.776979 227.352955 263.646771 226.050971 263.646771 226.050971 C 264.037396 224.748987 267.357708 224.097994 267.357708 224.097994 C 266.316042 223.121506 266.250938 221.298728 266.250938 221.298728 C 268.529583 221.10343 270.678021 223.121506 270.678021 223.121506 C 270.678021 223.121506 268.334271 222.275216 268.00875 218.239065 C 268.00875 218.239065 269.245729 218.043767 270.157188 218.759858 C 270.157188 218.759858 269.57125 214.46331 271.263958 213.682119 L 271.459271 213.682119 C 273.347292 213.942516 273.933229 218.239065 273.933229 218.239065 C 274.584271 217.327676 275.82125 217.197477 275.82125 217.197477 C 276.6025 221.16853 274.519167 222.600712 274.519167 222.600712 C 274.519167 222.600712 276.081667 220.126942 278.295208 219.671247 C 278.295208 219.671247 278.750938 221.428926 278.034792 222.665812 C 278.034792 222.665812 281.420208 222.405415 282.136354 223.577201 C 282.136354 223.577201 282.331667 224.944284 278.750938 226.311368 C 278.750938 226.311368 279.792604 227.938848 279.597292 229.175733 C 279.597292 229.175733 276.276979 228.65494 275.691042 227.222757 L 274.193646 227.418055 L 272.240521 227.678451 " transform="matrix(0.06,0,0,0.0600046,-0.0024,-5.763308)"/>
<path style=" stroke:none;fill-rule:nonzero;fill:rgb(100%,100%,100%);fill-opacity:1;" d="M 16.390625 7.941406 C 16.492188 7.925781 16.5625 7.835938 16.546875 7.734375 C 16.535156 7.636719 16.441406 7.566406 16.34375 7.578125 C 16.242188 7.59375 16.171875 7.683594 16.1875 7.785156 C 16.199219 7.882812 16.292969 7.953125 16.390625 7.941406 "/>
<path style="fill:none;stroke-width:0.40352;stroke-linecap:butt;stroke-linejoin:miter;stroke:rgb(0%,0%,0%);stroke-opacity:1;stroke-miterlimit:4;" d="M 273.217083 228.394543 C 274.909792 228.134146 276.081667 226.636864 275.82125 224.944284 C 275.625938 223.316804 274.063438 222.145018 272.435833 222.340315 C 270.743125 222.600712 269.57125 224.097994 269.831667 225.790574 C 270.026979 227.418055 271.589479 228.589841 273.217083 228.394543 Z M 273.217083 228.394543 " transform="matrix(0.06,0,0,0.0600046,-0.0024,-5.763308)"/>
<path style=" stroke:none;fill-rule:nonzero;fill:rgb(100%,100%,100%);fill-opacity:1;" d="M 16.378906 7.859375 C 16.433594 7.851562 16.472656 7.800781 16.464844 7.746094 C 16.457031 7.691406 16.410156 7.65625 16.355469 7.660156 C 16.300781 7.667969 16.261719 7.71875 16.269531 7.773438 C 16.277344 7.828125 16.324219 7.867188 16.378906 7.859375 "/>
<path style="fill:none;stroke-width:0.2522;stroke-linecap:butt;stroke-linejoin:miter;stroke:rgb(0%,0%,0%);stroke-opacity:1;stroke-miterlimit:4;" d="M 273.021771 227.027459 C 273.933229 226.897261 274.584271 226.050971 274.454063 225.139582 C 274.323854 224.228193 273.542604 223.6423 272.631146 223.707399 C 271.719688 223.837598 271.068646 224.683887 271.198854 225.595276 C 271.329063 226.506665 272.110313 227.157658 273.021771 227.027459 Z M 273.021771 227.027459 " transform="matrix(0.06,0,0,0.0600046,-0.0024,-5.763308)"/>
<path style=" stroke:none;fill-rule:nonzero;fill:rgb(100%,80%,0%);fill-opacity:1;" d="M 20.40625 8.285156 C 20.40625 8.285156 20.363281 8.164062 20.261719 8.207031 C 20.160156 8.25 20.171875 8.265625 20.078125 8.261719 C 20.078125 8.261719 20.042969 8.152344 20.089844 8.105469 C 20.089844 8.105469 19.945312 8.050781 19.914062 7.925781 C 19.914062 7.925781 19.992188 7.835938 20.175781 7.871094 C 20.175781 7.871094 20.167969 7.777344 20.195312 7.738281 C 20.195312 7.738281 20.390625 7.800781 20.390625 7.910156 C 20.390625 7.910156 20.332031 7.695312 20.4375 7.539062 C 20.4375 7.539062 20.527344 7.578125 20.523438 7.675781 C 20.523438 7.675781 20.566406 7.472656 20.835938 7.527344 C 20.835938 7.527344 20.691406 7.660156 20.683594 7.71875 C 20.675781 7.777344 20.550781 7.878906 20.550781 7.914062 C 20.546875 7.949219 20.53125 8.007812 20.496094 8.042969 C 20.460938 8.078125 20.457031 8.140625 20.460938 8.160156 C 20.460938 8.179688 20.453125 8.261719 20.40625 8.285156 "/>
<path style="fill-rule:nonzero;fill:rgb(73.72549%,67.45098%,4.313725%);fill-opacity:1;stroke-width:0.653319;stroke-linecap:butt;stroke-linejoin:miter;stroke:rgb(0%,0%,0%);stroke-opacity:1;stroke-miterlimit:4;" d="M 340.144167 234.123274 C 340.144167 234.123274 339.428021 232.105198 337.735313 232.82129 C 336.042604 233.537381 336.237917 233.797778 334.675417 233.732679 C 334.675417 233.732679 334.089479 231.909901 334.870729 231.12871 C 334.870729 231.12871 332.461875 230.217321 331.941042 228.134146 C 331.941042 228.134146 333.243125 226.636864 336.303021 227.222757 C 336.303021 227.222757 336.172813 225.660376 336.628542 225.009383 C 336.628542 225.009383 339.88375 226.050971 339.88375 227.873749 C 339.88375 227.873749 338.907188 224.293292 340.665 221.689323 C 340.665 221.689323 342.162396 222.340315 342.097292 223.967796 C 342.097292 223.967796 342.813438 220.582637 347.305625 221.494026 C 347.305625 221.494026 344.896771 223.707399 344.766563 224.683887 C 344.636354 225.660376 342.553021 227.352955 342.553021 227.938848 C 342.487917 228.524741 342.2275 229.50123 341.641563 230.087123 C 341.055625 230.673016 340.990521 231.714603 341.055625 232.040099 C 341.055625 232.365595 340.925417 233.732679 340.144167 234.123274 Z M 340.144167 234.123274 " transform="matrix(0.06,0,0,0.0600046,-0.0024,-5.763308)"/>
<path style=" stroke:none;fill-rule:nonzero;fill:rgb(100%,100%,100%);fill-opacity:1;" d="M 20.257812 8.042969 C 20.277344 7.945312 20.375 7.882812 20.472656 7.902344 C 20.5 7.90625 20.527344 7.917969 20.546875 7.933594 C 20.542969 7.96875 20.527344 8.015625 20.496094 8.042969 C 20.460938 8.078125 20.457031 8.140625 20.460938 8.160156 C 20.460938 8.171875 20.457031 8.226562 20.433594 8.261719 C 20.421875 8.261719 20.414062 8.261719 20.402344 8.257812 C 20.304688 8.238281 20.242188 8.144531 20.257812 8.042969 "/>
<path style="fill:none;stroke-width:0.40352;stroke-linecap:butt;stroke-linejoin:miter;stroke:rgb(0%,0%,0%);stroke-opacity:1;stroke-miterlimit:4;" d="M 337.670208 230.087123 C 337.995729 228.459642 339.623333 227.418055 341.250938 227.743551 C 341.706667 227.80865 342.162396 228.003948 342.487917 228.264344 C 342.422813 228.850237 342.162396 229.631428 341.641563 230.087123 C 341.055625 230.673016 340.990521 231.714603 341.055625 232.040099 C 341.055625 232.235397 340.990521 233.146786 340.599896 233.732679 C 340.404583 233.732679 340.274375 233.732679 340.079063 233.66758 C 338.451458 233.342084 337.409792 231.779702 337.670208 230.087123 Z M 337.670208 230.087123 " transform="matrix(0.06,0,0,0.0600046,-0.0024,-5.763308)"/>
<path style=" stroke:none;fill-rule:nonzero;fill:rgb(100%,100%,100%);fill-opacity:1;" d="M 20.339844 8.0625 C 20.351562 8.007812 20.402344 7.972656 20.457031 7.980469 C 20.480469 7.988281 20.503906 8 20.515625 8.019531 C 20.511719 8.027344 20.503906 8.035156 20.496094 8.042969 C 20.460938 8.078125 20.457031 8.140625 20.460938 8.160156 C 20.460938 8.164062 20.460938 8.167969 20.460938 8.175781 C 20.445312 8.179688 20.433594 8.179688 20.417969 8.175781 C 20.367188 8.167969 20.332031 8.113281 20.339844 8.0625 "/>
<path style="fill:none;stroke-width:0.2522;stroke-linecap:butt;stroke-linejoin:miter;stroke:rgb(0%,0%,0%);stroke-opacity:1;stroke-miterlimit:4;" d="M 339.037396 230.412619 C 339.232708 229.50123 340.079063 228.915337 340.990521 229.045535 C 341.381146 229.175733 341.771771 229.371031 341.967083 229.696527 C 341.901979 229.826726 341.771771 229.956924 341.641563 230.087123 C 341.055625 230.673016 340.990521 231.714603 341.055625 232.040099 C 341.055625 232.105198 341.055625 232.170298 341.055625 232.300496 C 340.795208 232.365595 340.599896 232.365595 340.339479 232.300496 C 339.493125 232.170298 338.907188 231.258908 339.037396 230.412619 Z M 339.037396 230.412619 " transform="matrix(0.06,0,0,0.0600046,-0.0024,-5.763308)"/>
<path style=" stroke:none;fill-rule:nonzero;fill:rgb(100%,80%,0%);fill-opacity:1;" d="M 15.125 8.234375 C 15.125 8.234375 15.179688 8.117188 15.277344 8.164062 C 15.375 8.214844 15.363281 8.230469 15.453125 8.230469 C 15.453125 8.230469 15.496094 8.125 15.453125 8.074219 C 15.453125 8.074219 15.601562 8.03125 15.640625 7.90625 C 15.640625 7.90625 15.566406 7.8125 15.382812 7.835938 C 15.382812 7.835938 15.394531 7.742188 15.371094 7.703125 C 15.371094 7.703125 15.171875 7.75 15.164062 7.859375 C 15.164062 7.859375 15.234375 7.648438 15.140625 7.488281 C 15.140625 7.488281 15.046875 7.519531 15.046875 7.617188 C 15.046875 7.617188 15.015625 7.414062 14.742188 7.453125 C 14.742188 7.453125 14.882812 7.59375 14.886719 7.652344 C 14.890625 7.714844 15.007812 7.824219 15.007812 7.855469 C 15.007812 7.890625 15.015625 7.949219 15.050781 7.988281 C 15.085938 8.027344 15.085938 8.085938 15.082031 8.105469 C 15.078125 8.125 15.082031 8.207031 15.125 8.234375 "/>
<path style="fill-rule:nonzero;fill:rgb(73.72549%,67.45098%,4.313725%);fill-opacity:1;stroke-width:0.653319;stroke-linecap:butt;stroke-linejoin:miter;stroke:rgb(0%,0%,0%);stroke-opacity:1;stroke-miterlimit:4;" d="M 252.123333 233.276984 C 252.123333 233.276984 253.034792 231.324008 254.662396 232.105198 C 256.29 232.951488 256.094688 233.211885 257.592083 233.211885 C 257.592083 233.211885 258.308229 231.454206 257.592083 230.607916 C 257.592083 230.607916 260.066042 229.891825 260.717083 227.80865 C 260.717083 227.80865 259.480104 226.246269 256.420208 226.636864 C 256.420208 226.636864 256.615521 225.074483 256.224896 224.42349 C 256.224896 224.42349 252.904583 225.204681 252.774375 227.027459 C 252.774375 227.027459 253.94625 223.512101 252.38375 220.843033 C 252.38375 220.843033 250.82125 221.363827 250.82125 222.991308 C 250.82125 222.991308 250.300417 219.606148 245.743125 220.25714 C 245.743125 220.25714 248.086875 222.600712 248.151979 223.577201 C 248.217083 224.618788 250.170208 226.441566 250.170208 226.96236 C 250.170208 227.548253 250.300417 228.524741 250.886354 229.175733 C 251.472292 229.826726 251.472292 230.803214 251.407188 231.12871 C 251.342083 231.454206 251.407188 232.82129 252.123333 233.276984 Z M 252.123333 233.276984 " transform="matrix(0.06,0,0,0.0600046,-0.0024,-5.763308)"/>
<path style=" stroke:none;fill-rule:nonzero;fill:rgb(100%,100%,100%);fill-opacity:1;" d="M 15.289062 8.003906 C 15.273438 7.902344 15.183594 7.835938 15.082031 7.847656 C 15.054688 7.851562 15.03125 7.859375 15.007812 7.875 C 15.011719 7.910156 15.023438 7.957031 15.050781 7.988281 C 15.085938 8.027344 15.085938 8.085938 15.082031 8.105469 C 15.078125 8.121094 15.082031 8.175781 15.101562 8.210938 C 15.113281 8.210938 15.121094 8.210938 15.132812 8.207031 C 15.230469 8.195312 15.300781 8.105469 15.289062 8.003906 "/>
<path style="fill:none;stroke-width:0.40352;stroke-linecap:butt;stroke-linejoin:miter;stroke:rgb(0%,0%,0%);stroke-opacity:1;stroke-miterlimit:4;" d="M 254.857708 229.43613 C 254.597292 227.743551 253.099896 226.636864 251.407188 226.832162 C 250.951458 226.897261 250.560833 227.027459 250.170208 227.287856 C 250.235313 227.873749 250.430625 228.65494 250.886354 229.175733 C 251.472292 229.826726 251.472292 230.803214 251.407188 231.12871 C 251.342083 231.389107 251.407188 232.300496 251.732708 232.886389 C 251.928021 232.886389 252.058229 232.886389 252.253542 232.82129 C 253.881146 232.625992 255.053021 231.12871 254.857708 229.43613 Z M 254.857708 229.43613 " transform="matrix(0.06,0,0,0.0600046,-0.0024,-5.763308)"/>
<path style=" stroke:none;fill-rule:nonzero;fill:rgb(100%,100%,100%);fill-opacity:1;" d="M 15.207031 8.015625 C 15.199219 7.960938 15.148438 7.921875 15.09375 7.929688 C 15.070312 7.933594 15.046875 7.945312 15.03125 7.960938 C 15.039062 7.972656 15.042969 7.980469 15.050781 7.988281 C 15.085938 8.027344 15.085938 8.085938 15.082031 8.105469 C 15.082031 8.109375 15.082031 8.117188 15.082031 8.125 C 15.09375 8.128906 15.105469 8.128906 15.121094 8.125 C 15.175781 8.121094 15.214844 8.070312 15.207031 8.015625 "/>
<path style="fill:none;stroke-width:0.2522;stroke-linecap:butt;stroke-linejoin:miter;stroke:rgb(0%,0%,0%);stroke-opacity:1;stroke-miterlimit:4;" d="M 253.490521 229.631428 C 253.360313 228.720039 252.513958 228.069047 251.6025 228.199245 C 251.211875 228.264344 250.82125 228.459642 250.560833 228.720039 C 250.691042 228.915337 250.756146 229.045535 250.886354 229.175733 C 251.472292 229.826726 251.472292 230.803214 251.407188 231.12871 C 251.407188 231.193809 251.407188 231.324008 251.407188 231.454206 C 251.6025 231.519305 251.797813 231.519305 252.058229 231.454206 C 252.969688 231.389107 253.620729 230.542817 253.490521 229.631428 Z M 253.490521 229.631428 " transform="matrix(0.06,0,0,0.0600046,-0.0024,-5.763308)"/>
<path style="fill:none;stroke-width:1.508397;stroke-linecap:butt;stroke-linejoin:miter;stroke:rgb(0%,0%,0%);stroke-opacity:1;stroke-miterlimit:4;" d="M 257.266563 251.634964 C 257.266563 251.634964 290.990521 238.419823 333.63375 251.895361 " transform="matrix(0.06,0,0,0.0600046,-0.0024,-5.763308)"/>
<path style="fill:none;stroke-width:0.501998;stroke-linecap:butt;stroke-linejoin:miter;stroke:rgb(0%,0%,0%);stroke-opacity:1;stroke-miterlimit:4;" d="M 338.386354 241.088891 C 291.250938 226.181169 253.750938 240.242601 253.750938 240.242601 " transform="matrix(0.06,0,0,0.0600046,-0.0024,-5.763308)"/>
<path style="fill-rule:nonzero;fill:rgb(100%,0%,0%);fill-opacity:1;stroke-width:0.501998;stroke-linecap:butt;stroke-linejoin:miter;stroke:rgb(0%,0%,0%);stroke-opacity:1;stroke-miterlimit:4;" d="M 295.938438 237.76883 L 292.2275 239.656708 L 295.612917 241.804982 L 299.584271 239.786906 L 295.938438 237.76883 " transform="matrix(0.06,0,0,0.0600046,-0.0024,-5.763308)"/>
</g>
</svg>
