<?xml version="1.0" encoding="UTF-8"?>
<svg xmlns="http://www.w3.org/2000/svg" xmlns:xlink="http://www.w3.org/1999/xlink" width="16px" height="16px" viewBox="0 0 16 16" version="1.1">
<g id="surface1">
<path style=" stroke:none;fill-rule:nonzero;fill:rgb(0%,0%,0%);fill-opacity:1;" d="M 1.1875 2.175781 C 1.1875 1 2.140625 0.0429688 3.320312 0.0429688 C 4.5 0.0429688 5.457031 0.996094 5.457031 2.175781 C 5.457031 3.355469 4.5 4.3125 3.320312 4.3125 C 2.140625 4.3125 1.1875 3.355469 1.1875 2.175781 Z M 10.867188 2.175781 C 10.867188 1 11.824219 0.0429688 13.003906 0.0429688 C 14.179688 0.0429688 15.136719 0.996094 15.136719 2.175781 C 15.136719 3.355469 14.183594 4.3125 13.003906 4.3125 C 11.824219 4.3125 10.867188 3.355469 10.867188 2.175781 Z M 15.914062 10.921875 C 14.589844 13.980469 11.492188 15.957031 8.019531 15.957031 C 4.472656 15.957031 1.355469 13.972656 0.078125 10.894531 C -0.140625 10.371094 0.109375 9.765625 0.636719 9.546875 C 0.765625 9.492188 0.902344 9.464844 1.03125 9.464844 C 1.4375 9.464844 1.820312 9.707031 1.988281 10.105469 C 2.941406 12.40625 5.3125 13.894531 8.019531 13.894531 C 10.667969 13.894531 13.023438 12.40625 14.019531 10.101562 C 14.246094 9.578125 14.851562 9.335938 15.375 9.5625 C 15.902344 9.789062 16.140625 10.398438 15.914062 10.921875 Z M 15.914062 10.921875 "/>
</g>
</svg>
